<svg xmlns="http://www.w3.org/2000/svg" viewBox="0 0 500.26 500.26"><defs><style>.cls-1{isolation:isolate;}.cls-2{fill:#fff;}.cls-3,.cls-32{fill:#231f20;mix-blend-mode:multiply;}.cls-3{opacity:0.17;}.cls-4{fill:#ffc974;}.cls-5{fill:#de5e82;}.cls-6{fill:#5a4a42;}.cls-7{fill:#64594d;}.cls-8{fill:#716558;}.cls-9{fill:#bc4f70;}.cls-10{fill:#f8a36a;}.cls-11{fill:#404041;}.cls-12{fill:#f8a98d;}.cls-13{fill:#603813;}.cls-14{fill:#f3847f;}.cls-15{fill:#d3736f;}.cls-16{fill:none;stroke:#716558;stroke-linecap:round;stroke-miterlimit:10;stroke-width:0.59px;}.cls-17{fill:#f0668c;}.cls-18{fill:gold;}.cls-19{fill:#bbbdbf;}.cls-20{fill:#473a33;}.cls-21{fill:#d15f22;}.cls-22{fill:#75b997;}.cls-23{fill:#16232e;}.cls-24{fill:#d0d2d3;}.cls-25{fill:#35a3b3;}.cls-26{fill:#5f554a;}.cls-27{fill:#75b896;}.cls-28{fill:#9a7d47;}.cls-29{fill:#6db3a9;}.cls-30{fill:#80c9a4;}.cls-31{fill:#f37920;}.cls-32{opacity:0.2;}.cls-33{fill:#58595b;}.cls-34{fill:#f05a28;}.cls-35{fill:#f6921e;}.cls-36{fill:#f26e28;}</style></defs><title>part2</title><g class="cls-1"><g id="BACKGROUND"><rect class="cls-2" width="500.26" height="500.26"/></g><g id="OBJECTS"><path class="cls-3" d="M136.13,384.49c0,4.45-28.65,8.06-64,8.06s-64-3.61-64-8.06,28.65-8.07,64-8.07S136.13,380,136.13,384.49Z"/><ellipse class="cls-3" cx="431.36" cy="385.18" rx="63.98" ry="8.06"/><path class="cls-3" d="M175.24,385.92c0,2.75-8.06,5-18,5s-18-2.23-18-5,8.06-5,18-5S175.24,383.17,175.24,385.92Z"/><path class="cls-3" d="M233,385.92c0,2.75-8.06,5-18,5s-18-2.23-18-5,8.06-5,18-5S233,383.17,233,385.92Z"/><path class="cls-4" d="M159.36,117.3a38.13,38.13,0,0,0,1.93,5.52c.7,1.09-2.28,1.79-2.28,1.79l-3.7-2.9Z"/><path class="cls-4" d="M153.3,113.51a8,8,0,0,0-.24,5.22c.72,2.38,4.88,5,4.88,5l1.42-2.89Z"/><path class="cls-4" d="M273.13,135.59s2.15-.29,3.17-.34,2.05-6.69,3.26-7.17,1.48,5.58,1.46,6.09c0,.21,1.72,0,4-.22,3.26-.27,7.44-.56,7.58-.22.24.58-.89,1.4-.89,1.4a1.12,1.12,0,0,1-.89,1.43s0,1.53-1.06,1.59a2.23,2.23,0,0,1-1.57,1.41s.4.78-1.23,1.33a16.41,16.41,0,0,1-6.22.31,10.3,10.3,0,0,0-7.1-.14Z"/><path class="cls-5" d="M212.06,116.13c-5.23-2.33-10.88,6.78-8.08,11.74s28.87,18.08,30.87,18.45,40-3.67,40-3.67l-1.35-8.49s-35.59.25-36.77.22S216.65,118.17,212.06,116.13Z"/><path class="cls-6" d="M201.3,275.35l-1.81,11.25,4.09.52.53-1.43s6.65,2.37,17.41,1.39a26.2,26.2,0,0,0-13.66-10.75Z"/><path class="cls-6" d="M175,275l-1.81,11.24,4.09.52.53-1.42s6.65,2.37,17.41,1.39A26.2,26.2,0,0,0,181.59,276Z"/><path class="cls-7" d="M211.44,167.94s2,43.09,2,46.88-3.8,59.24-4.05,62H199.19s2.11-50.95,1-58.25-1.33-42.71-1.33-42.71l3.88-13Z"/><path class="cls-8" d="M207.11,166.08l-9.27,58-11.67,53.63-11.94-2.91s11-48.74,11.31-55.4c0,0-6.73-35.25-1-61Z"/><polygon class="cls-9" points="198.8 107.73 212.26 111.78 207.1 117.51 198.8 107.73"/><path class="cls-4" d="M204.66,98.15l-5.86,16.32s5.08,9.18,9.38,5.08L215.41,102Z"/><path class="cls-3" d="M203.24,102.12c1.58,1.62,6.35,6.3,9.27,6.91l2.9-7.07-10.75-3.81Z"/><path class="cls-4" d="M232.36,70.15s4.11,33.8-16.8,34.58-21.88-24.42-21.88-29.89,7-13.68,19.5-13.68S232.36,67.22,232.36,70.15Z"/><path class="cls-10" d="M225.48,88.23s3.52,6.84,1.76,7.62a4.16,4.16,0,0,1-3.32,0Z"/><ellipse class="cls-11" cx="217.38" cy="83.76" rx="2.21" ry="3.26"/><path class="cls-11" d="M231.45,84.28c0,1.51-.66,2.74-1.47,2.74s-1.47-1.23-1.47-2.74.66-2.75,1.47-2.75S231.45,82.76,231.45,84.28Z"/><path class="cls-12" d="M218.88,89.46c0,.85-1.48,1.54-3.31,1.54s-3.31-.69-3.31-1.54,1.48-1.53,3.31-1.53S218.88,88.62,218.88,89.46Z"/><path class="cls-12" d="M228.51,89.46c0,.7,1,1.29,2.4,1.48.29-1,.53-2,.74-3C229.9,88,228.51,88.64,228.51,89.46Z"/><path class="cls-2" d="M218.88,82.87c0,.49-.19.89-.43.89s-.43-.4-.43-.89.19-.9.43-.9S218.88,82.37,218.88,82.87Z"/><ellipse class="cls-2" cx="230.41" cy="83.76" rx="0.43" ry="0.89"/><path class="cls-13" d="M201.72,102s3.37-10.79,3.37-16.35c0,0-4.72.36-4.89-5.13s5.56-1.62,5.56-1.62,1.35-1.35,1.86-5.73c0,0,21.42,8.26,29.34,0s-.08-17.08-9.23-14.34a17.25,17.25,0,0,0-16.23-7.25c-11.55,1.35-11.31,8.26-11.31,8.26s-11.12-.34-12.47,12.48S194.46,98.45,201.72,102Z"/><path class="cls-14" d="M214.35,98.15s-2.33-4.4,0-4.84,2,4.4,2,4.4Z"/><polygon class="cls-15" points="214.98 97.9 214.84 95.41 215.57 97.8 214.98 97.9"/><path class="cls-16" d="M222.71,101.31s-4.8-5.74-9.53-2.62"/><path class="cls-9" d="M197.5,111.78s-17,11.76-17.93,60.2c0,0,8.78,9.15,25.47,11.68l1.18-6.75,1.11,6.75s3.83-2.7,6.87-4.73l-1-61.63-6.07.21Z"/><polygon class="cls-17" points="199.86 109.03 207.1 117.51 201.88 122.23 195.48 111.61 198.8 107.73 199.86 109.03"/><polygon class="cls-17" points="207.1 117.51 212.26 111.78 214.2 117.3 210.21 122.82 207.1 117.51"/><path class="cls-18" d="M207.11,117.51s-5.94,34.44,3.54,52l4.76,1.18,1.66-5.06S207.11,149.08,207.11,117.51Z"/><path class="cls-5" d="M195.92,112.79c-4.3-2.34-16.64,20.07-17.72,21s-15.41-13.15-15.41-13.15L156,125.37s14,21,20.27,21.52c1.48.13,3.26,1,5.14-.28,6.15-4.16,14.53-18.65,16.3-21.41C200.06,121.6,202.22,116.21,195.92,112.79Z"/><rect class="cls-19" x="155.31" y="97.38" width="4.05" height="291.34"/><rect class="cls-19" x="212.98" y="97.38" width="4.05" height="291.34"/><rect class="cls-19" x="184.14" y="94.35" width="4.05" height="61.8" transform="translate(311.42 -60.92) rotate(90)"/><rect class="cls-19" x="184.14" y="127.07" width="4.05" height="61.8" transform="translate(344.13 -28.2) rotate(90)"/><rect class="cls-19" x="184.14" y="159.78" width="4.05" height="61.8" transform="translate(376.85 4.52) rotate(90)"/><rect class="cls-19" x="184.14" y="192.5" width="4.05" height="61.8" transform="translate(409.57 37.23) rotate(90)"/><rect class="cls-19" x="184.14" y="225.22" width="4.05" height="61.8" transform="translate(442.29 69.95) rotate(90)"/><rect class="cls-19" x="184.14" y="257.94" width="4.05" height="61.8" transform="translate(475.01 102.67) rotate(90)"/><rect class="cls-19" x="184.14" y="290.66" width="4.05" height="61.8" transform="translate(507.72 135.39) rotate(90)"/><rect class="cls-19" x="184.14" y="323.37" width="4.05" height="61.8" transform="translate(540.44 168.11) rotate(90)"/><path class="cls-20" d="M458.36,374.74l.9,12.56-4.55.17-.45-1.62s-7.54,2-19.3-.14A29,29,0,0,1,451,375.19Z"/><path class="cls-6" d="M446.62,375.59l1.1,12.55-4.55.24-.47-1.61s-7.51,2.08-19.3.15a29,29,0,0,1,15.92-10.77Z"/><path class="cls-4" d="M368.7,301.51s-2.16,0-3.18.05-2.85-6.39-4.11-6.72-.78,5.72-.71,6.23c0,.2-1.71.18-3.95.26-3.27.13-7.45.35-7.55.7-.17.6,1.06,1.28,1.06,1.28a1.11,1.11,0,0,0,1.05,1.31s.23,1.52,1.26,1.45a2.22,2.22,0,0,0,1.73,1.21s-.31.82,1.38,1.18a16.55,16.55,0,0,0,6.21-.46,10.29,10.29,0,0,1,7-1Z"/><path class="cls-21" d="M427,274.75c4.9-2.95,11.63,5.4,9.45,10.67S410,306.88,408,307.5s-40.2,1.23-40.2,1.23l.3-8.59s35.37-4.09,36.53-4.26S422.64,277.33,427,274.75Z"/><path class="cls-4" d="M166,206.05s1.75-1.27,2.62-1.81-1.37-6.86-.54-7.86,4,4.22,4.19,4.67c.09.19,1.5-.84,3.37-2.07,2.74-1.79,6.27-4,6.56-3.8.49.4-.12,1.66-.12,1.66a1.12,1.12,0,0,1-.1,1.68s.69,1.37-.18,1.91a2.21,2.21,0,0,1-.71,2s.72.5-.45,1.76a16.85,16.85,0,0,1-5.32,3.23,10.28,10.28,0,0,0-6.32,3.25Z"/><path class="cls-22" d="M103,217.94c-5.7.44-6.35,11.14-1.53,14.17s34,2.19,35.94,1.57,33.49-22.26,33.49-22.26l-5.22-6.83s-31.21,17.13-32.25,17.67S108,217.56,103,217.94Z"/><path class="cls-23" d="M264.27,211.64a50,50,0,0,0-7.22-17.4l7.88-9.31-6.44-6.43-6.44-6.44-9.31,7.87a49.6,49.6,0,0,0-17.4-7.21l-1-12.15H206.12l-1,12.15a49.76,49.76,0,0,0-17.4,7.21l-9.31-7.87L172,178.5l-6.44,6.43,7.87,9.31a49.76,49.76,0,0,0-7.21,17.4l-12.15,1v18.21l12.15,1a49.6,49.6,0,0,0,7.21,17.4l-7.87,9.31L172,265l6.43,6.44,9.31-7.88a50,50,0,0,0,17.4,7.22l1,12.14h18.21l1-12.14a49.81,49.81,0,0,0,17.4-7.22l9.31,7.88,6.44-6.44,6.44-6.44-7.88-9.31a49.81,49.81,0,0,0,7.22-17.4l12.14-1V212.66Zm-49,39.79a29.67,29.67,0,1,1,29.66-29.67A29.67,29.67,0,0,1,215.22,251.43Z"/><path class="cls-24" d="M362.34,148.12a49.62,49.62,0,0,0-7.22-17.4l7.88-9.31L356.56,115l-6.44-6.44-9.31,7.88a49.62,49.62,0,0,0-17.4-7.22l-1-12.14H304.19l-1,12.14a49.62,49.62,0,0,0-17.4,7.22l-9.31-7.88L270,115l-6.44,6.44,7.88,9.31a49.81,49.81,0,0,0-7.22,17.4l-12.14,1v18.21l12.14,1a49.81,49.81,0,0,0,7.22,17.4l-7.88,9.31L270,201.5l6.44,6.44,9.31-7.88a49.81,49.81,0,0,0,17.4,7.22l1,12.14H322.4l1-12.14a49.81,49.81,0,0,0,17.4-7.22l9.31,7.88,6.44-6.44,6.44-6.44-7.88-9.31a49.62,49.62,0,0,0,7.22-17.4l12.14-1V149.13Zm-49,39.78A29.67,29.67,0,1,1,343,158.23,29.67,29.67,0,0,1,313.3,187.9Z"/><path class="cls-25" d="M358.25,285.73A49.68,49.68,0,0,0,353,267.64l8.85-8.39-5.7-7.1L350.44,245l-10.12,6.81a50,50,0,0,0-16.51-9.07l.32-12.18-9.05-1-9.05-1-2.33,12a49.88,49.88,0,0,0-18.09,5.27L277.22,237l-7.1,5.7-7.11,5.7,6.82,10.11A49.79,49.79,0,0,0,260.75,275l-12.18-.32-1,9.05-1,9.05,12,2.33a49.88,49.88,0,0,0,5.27,18.09L255,321.6l5.69,7.11,5.7,7.1L276.47,329A49.77,49.77,0,0,0,293,338.07l-.32,12.18,9,1,9.05,1,2.34-12A49.83,49.83,0,0,0,331.18,335l8.39,8.85,7.11-5.7,7.1-5.7L347,322.35A49.77,49.77,0,0,0,356,305.84l12.18.32,1-9.05,1-9.05Zm-53.09,34.18a29.66,29.66,0,1,1,32.72-26.24A29.66,29.66,0,0,1,305.16,319.91Z"/><path class="cls-20" d="M409.42,281.86s16.74,18,6.47,41.41l2,4.89,5.57-4.22S431.49,295.66,409.42,281.86Z"/><path class="cls-4" d="M166.76,237.79s2.14-.34,3.16-.42,1.88-6.74,3.07-7.26,1.62,5.55,1.62,6.06c0,.21,1.72-.07,3.95-.32,3.25-.36,7.42-.76,7.57-.42.26.57-.85,1.42-.85,1.42a1.12,1.12,0,0,1-.86,1.45s0,1.54-1,1.62a2.24,2.24,0,0,1-1.54,1.45s.43.77-1.19,1.37a16.65,16.65,0,0,1-6.21.47,10.32,10.32,0,0,0-7.1,0Z"/><path class="cls-6" d="M96.63,370.82,93.86,383.1l4.48.86.68-1.54s7.17,3.07,19.11,2.73a29,29,0,0,0-14.33-12.8Z"/><path class="cls-6" d="M29.11,349.94l-9.34,8.46,3.17,3.27,1.45-.86s4.09,6.63,14,13.23a29,29,0,0,0-4.36-18.72Z"/><path class="cls-26" d="M73.09,264.59s-14.26,49.21-15,52.82-30.48,33-30.48,33l8.08,8.08S65.49,333.78,69,327.79s24.16-45.44,25.47-52.48S82,257.53,73.09,264.59Z"/><path class="cls-8" d="M75.83,260.78s-7.21,17.13-3.25,29,24.23,36,26,37-2.8,44.74-2.8,44.74L106.94,374s7.94-43,7.12-50.69-12.5-33.56-13.55-37.75-2-11.19-2-11.19Z"/><polygon class="cls-27" points="104.61 210.14 109.88 210.14 106.27 213.56 104.61 210.14"/><polygon class="cls-27" points="115.94 219.42 116.53 224.1 113.76 222.82 115.94 219.42"/><path class="cls-4" d="M109.1,203.5l-5.86,16.31s5.08,9.19,9.38,5.08l7.23-17.58Z"/><path class="cls-3" d="M107.68,207.46c1.57,1.62,6.35,6.3,9.26,6.91l2.91-7.06L109.1,203.5Z"/><path class="cls-4" d="M137,175.07s4.11,33.8-16.8,34.58-21.88-24.42-21.88-29.89,7-13.68,19.5-13.68S137,172.14,137,175.07Z"/><path class="cls-13" d="M114.77,175.26s12.7,6.84,25.59,5.08c0,0-.11-14.25-12.79-18-15.34-4.5-20.81,3.71-20.81,3.71s-8.21.2-11.53,9.38,1.37,24.81,11.14,31.85a34.52,34.52,0,0,0,3.12-14.07s-7.06-2.11-6-8.85c.78-5.22,7-2.34,7,1.62C110.47,186,114.38,182.88,114.77,175.26Z"/><path class="cls-10" d="M130.16,193.15s3.51,6.84,1.76,7.62a4.19,4.19,0,0,1-3.33,0Z"/><ellipse class="cls-11" cx="122.06" cy="188.68" rx="2.21" ry="3.26"/><path class="cls-11" d="M136.13,189.19c0,1.52-.66,2.75-1.47,2.75s-1.47-1.23-1.47-2.75.66-2.74,1.47-2.74S136.13,187.68,136.13,189.19Z"/><path class="cls-28" d="M117.86,200.08s6.39,3.13,12.64,2.44c0,0-2.84,5.47-7.92,4.2S117.86,200.08,117.86,200.08Z"/><path class="cls-12" d="M123.56,194.38c0,.85-1.48,1.54-3.31,1.54s-3.32-.69-3.32-1.54,1.49-1.53,3.32-1.53S123.56,193.54,123.56,194.38Z"/><path class="cls-12" d="M133.19,194.38c0,.7,1,1.29,2.4,1.48.28-1,.53-2,.74-3C134.58,192.9,133.19,193.56,133.19,194.38Z"/><path class="cls-2" d="M123.56,187.79c0,.49-.19.89-.43.89s-.43-.4-.43-.89.19-.9.43-.9S123.56,187.29,123.56,187.79Z"/><ellipse class="cls-2" cx="135.09" cy="188.68" rx="0.43" ry="0.89"/><path class="cls-2" d="M129.55,202.59a26.41,26.41,0,0,1-10.61-2,1.84,1.84,0,0,0,.91,2A31.94,31.94,0,0,0,127.6,204,1.86,1.86,0,0,0,129.55,202.59Z"/><path class="cls-29" d="M105.13,211.61s-27,13.41-35.56,51.71c0,0,15,18.76,33.67,20.58a252.52,252.52,0,0,1,12.7-64.48Z"/><polygon class="cls-30" points="104.61 210.14 115.94 219.42 112.94 224.1 100.8 213.17 104.61 210.14"/><path class="cls-24" d="M115.74,219.91s-15,46.36-9.18,58.43l3.32,4.61,2.41-7.63S108.91,253.49,115.74,219.91Z"/><path class="cls-30" d="M105.21,219.91c-5.28-2.19-10.71,7.06-7.77,12s29.32,17.33,31.33,17.65,39.94-4.71,39.94-4.71l-1.56-8.45s-35.58,1.17-36.75,1.17S109.85,221.84,105.21,219.91Z"/><path class="cls-26" d="M442.37,338.48c-.26,3.83,17.61,38.08,17.61,38.08H450s-20.76-29.26-20.5-33.72S442.37,338.48,442.37,338.48Z"/><path class="cls-8" d="M436.85,313.93S416.7,335,415.91,340s21.29,36.57,21.29,36.57h10s-12.62-28.42-12.62-32.23,40.94-18.7,29.09-39.86Z"/><polygon class="cls-31" points="410.96 270.55 407.55 282.65 412.54 287.38 412.54 281.08 410.96 270.55"/><path class="cls-4" d="M401,268.42l16.78,4.36s4.72,9.38-1.1,10.61L398,279.44Z"/><path class="cls-32" d="M398,279.44l8.35,1.78a35.17,35.17,0,0,0,4.85-10.13L401,268.42Z"/><path class="cls-4" d="M368.28,252.61s5.47,33.61,25.77,28.54,14.22-29.55,12.7-34.8-10.5-11.2-22.54-7.71S367.47,249.8,368.28,252.61Z"/><path class="cls-10" d="M379.93,268.06s-1.47,7.55.43,7.81a4.15,4.15,0,0,0,3.19-.93Z"/><path class="cls-11" d="M384.33,262.13c.51,1.73,1.86,2.86,3,2.52s1.72-2,1.22-3.75-1.86-2.85-3-2.51S383.83,260.41,384.33,262.13Z"/><path class="cls-11" d="M373.09,265.93c.42,1.45,1.4,2.45,2.18,2.22s1.07-1.59.65-3-1.4-2.45-2.18-2.23S372.67,264.47,373.09,265.93Z"/><path class="cls-12" d="M386.61,267.41c.24.81,1.85,1.06,3.61.55s3-1.58,2.75-2.39-1.85-1.06-3.6-.55S386.37,266.6,386.61,267.41Z"/><path class="cls-12" d="M377.36,270.09c.2.67-.61,1.52-1.89,2.08-.55-.87-1.07-1.76-1.55-2.67C375.61,269.05,377.13,269.3,377.36,270.09Z"/><path class="cls-2" d="M384.77,261.08c.14.47.44.8.67.73s.3-.5.16-1-.43-.81-.66-.74S384.64,260.6,384.77,261.08Z"/><path class="cls-2" d="M373.53,265.26c.14.48.44.81.67.74s.3-.5.16-1-.43-.8-.66-.73S373.39,264.79,373.53,265.26Z"/><path class="cls-33" d="M386,278.47c-.73,0-1.22,0-1.29,0a.28.28,0,0,1-.24-.29.26.26,0,0,1,.29-.24s5.31.47,7.83-1.8a4,4,0,0,0,1.33-3.05.26.26,0,0,1,.26-.26h0a.26.26,0,0,1,.26.26,4.55,4.55,0,0,1-1.51,3.45C391,278.21,387.77,278.47,386,278.47Z"/><path class="cls-13" d="M370.58,261.52s-7.44-4.33-9.19-10.63l1.66,1-1.66-3.59a4.72,4.72,0,0,0,6.4-2.54c2.19-4.56,6.83-9.38,15.24-11.74s15.42,1.72,16.2,3.62a10.77,10.77,0,0,1,9.56,8.64c2,8.33,2.38,21.45-3.85,27.89a95.92,95.92,0,0,0-4.13-14,7.35,7.35,0,0,0-.26-7.54c-2.45-4.2-5,1.78-5,1.78l-3.44-8.74s-8.87,12.09-22.21,11.76Z"/><path class="cls-34" d="M411,270.55s47.18-3.67,54.8,35c0,0-5,6.83-31.28,10.51,0,0,7-21.35-25.88-33.51Z"/><polygon class="cls-35" points="410.96 270.55 408.6 282.52 416.48 285.68 416.48 269.78 410.96 270.55"/><path class="cls-4" d="M361.21,290.62s-2.14-.34-3.16-.42-1.88-6.74-3.07-7.26-1.62,5.55-1.62,6.06c0,.21-1.72-.07-3.95-.32-3.25-.36-7.42-.76-7.57-.42-.26.57.85,1.42.85,1.42a1.12,1.12,0,0,0,.86,1.45s0,1.54,1,1.62a2.24,2.24,0,0,0,1.54,1.45s-.43.77,1.19,1.37a16.65,16.65,0,0,0,6.21.47,10.32,10.32,0,0,1,7.1,0Z"/><path class="cls-36" d="M422.76,272.74c5.28-2.19,10.71,7.07,7.77,11.95S401.21,302,399.2,302.34s-39.94-4.71-39.94-4.71l1.56-8.45s35.58,1.17,36.76,1.17S418.12,274.67,422.76,272.74Z"/><path class="cls-4" d="M154,118.4c-.63-1.43-1.31-3.67-.7-4.89a32.13,32.13,0,0,1,2.51-3.66c.82-1.16,1.43.06.82,1.08a1.67,1.67,0,0,1-.27,1.7s.4.48-.14,1.26a1.17,1.17,0,0,1-.14,1.55,4.9,4.9,0,0,0-1.23,3C154.89,119.14,154,118.4,154,118.4Z"/><path class="cls-4" d="M159.36,115s-1.94-1.12-2-.37,1.1,2.65,2,2.69S159.94,115.28,159.36,115Z"/><circle class="cls-25" cx="308.4" cy="290.71" r="20.87"/><circle class="cls-24" cx="313.3" cy="158.55" r="20.87" transform="translate(-36.72 130.54) rotate(-22.27)"/><circle class="cls-23" cx="214.84" cy="221.76" r="20.87"/></g></g></svg>