<svg id="OBJECTS" xmlns="http://www.w3.org/2000/svg" xmlns:xlink="http://www.w3.org/1999/xlink" viewBox="0 0 437.07 386.58"><defs><style>.cls-1{fill:#243f4e;}.cls-2{fill:#e8aeb2;}.cls-3{fill:#fff;}.cls-4{fill:#264251;}.cls-5{fill:#c74136;}.cls-6{fill:#f1d7dc;}.cls-7{fill:#412629;}.cls-8{fill:#dfa64f;}.cls-9{clip-path:url(#clip-path);}.cls-10{fill:#1c2f38;}.cls-11{fill:#335360;}.cls-12{clip-path:url(#clip-path-2);}.cls-13{fill:#d5a1a6;}.cls-14{fill:#2e4952;}.cls-15{fill:#b33b34;}.cls-16{clip-path:url(#clip-path-3);}.cls-17{fill:#bc3f38;}.cls-18{clip-path:url(#clip-path-4);}.cls-19{fill:#dd8989;opacity:0.44;}.cls-20{fill:#f1d7da;}.cls-21{clip-path:url(#clip-path-5);}.cls-22{clip-path:url(#clip-path-6);}.cls-23{clip-path:url(#clip-path-7);}.cls-24{fill:#321d21;}.cls-25{fill:#d36177;}.cls-26{clip-path:url(#clip-path-8);}.cls-27,.cls-28{fill:#713d44;}.cls-28{opacity:0.28;}.cls-29{clip-path:url(#clip-path-9);}.cls-30{fill:#222221;}.cls-31{fill:#d47580;}.cls-32{clip-path:url(#clip-path-10);}.cls-33{fill:#a12f29;}.cls-34{fill:#c9d0d5;}.cls-35{clip-path:url(#clip-path-11);}.cls-36{clip-path:url(#clip-path-12);}.cls-37{fill:#1f353f;}.cls-38{fill:#585857;}.cls-39{fill:#3f3e3e;}</style><clipPath id="clip-path" transform="translate(-29.83 -60.42)"><path class="cls-1" d="M309.32,134.91c-7,3.33-29.94-4.8-29.94-4.8,11.83-.37,15.52-8.51,15.52-8.51-17,4.26-27.56-3.6-43.11-9.61,6-2.92,21.31-2.21,21.31-2.21-23.29-14-50.27-7.4-50.27-7.4l4.06-12.93s-3.32,7.39-21.06,12.2S188.08,122,188.08,122s.17,7.55.37,7.4c.14,13.16,4.11,1.34,4.07.74,0,0,12.2,35.11,45.09,47.31s56.18-19.22,56.18-19.22l-25.5-10C285.29,152.28,309.32,134.91,309.32,134.91Z"/></clipPath><clipPath id="clip-path-2" transform="translate(-29.83 -60.42)"><polygon class="cls-2" points="177.74 246.53 133.38 318.24 145.95 324.15 182.54 251.34 177.74 246.53"/></clipPath><clipPath id="clip-path-3" transform="translate(-29.83 -60.42)"><path class="cls-5" d="M239.09,213.64l11.83-16.26s24.76-1.11,30.68,12.56,23.28,73.19,14.41,78-38.44,3-38.44,3Z"/></clipPath><clipPath id="clip-path-4" transform="translate(-29.83 -60.42)"><path class="cls-2" d="M263.86,155.24c-3.7-11.83-15.43.18-15.53-1.48-1-.42-10.28-3.08-9.24-17.37.82-11.13-1.56-17.47-7.42-19.62-9-1.65-20.81,1.12-32.13,6.31-22.54,10.35.56,88.53.56,88.53l48.23-5-.74-36.6C261.27,178.16,267.05,165.48,263.86,155.24Z"/></clipPath><clipPath id="clip-path-5" transform="translate(-29.83 -60.42)"><ellipse id="_Ellipse_" data-name="&lt;Ellipse&gt;" class="cls-6" cx="190.67" cy="141.01" rx="11.83" ry="14.97"/></clipPath><clipPath id="clip-path-6" transform="translate(-29.83 -60.42)"><ellipse id="_Ellipse_2" data-name="&lt;Ellipse&gt;" class="cls-6" cx="221.72" cy="134.73" rx="12.57" ry="15.91"/></clipPath><clipPath id="clip-path-7" transform="translate(-29.83 -60.42)"><path class="cls-7" d="M198.43,162.63l34-8.5s12.2,39.55-7,42.88S198.43,162.63,198.43,162.63Z"/></clipPath><clipPath id="clip-path-8" transform="translate(-29.83 -60.42)"><path class="cls-8" d="M197.69,206.25s-6.28,59.87-2.95,105l85.75-3L249.07,204.4Z"/></clipPath><clipPath id="clip-path-9" transform="translate(-29.83 -60.42)"><polygon class="cls-8" points="195.85 209.94 170.34 247.27 193.81 260.76 197.32 212.53 195.85 209.94"/></clipPath><clipPath id="clip-path-10" transform="translate(-29.83 -60.42)"><polygon class="cls-8" points="254.8 240.07 279.01 190.35 247.22 187.4 248.33 206.62 254.8 240.07"/></clipPath><clipPath id="clip-path-11" transform="translate(-29.83 -60.42)"><path id="_Clipping_Path_" data-name="&lt;Clipping Path&gt;" class="cls-3" d="M197.69,369.62s-.37-43.62,76.88-69.49,89.08-41.77,89.08-41.77l10,37.33Z"/></clipPath><clipPath id="clip-path-12" transform="translate(-29.83 -60.42)"><path class="cls-4" d="M49.78,305.91,174,340.05s-2.22,9.61,15.52,7.76,15.16-11.46,15.16-11.46L379.18,271.3l72.44,143.78L275.68,433.19s2.22,5.18-12.93,6.28-18.11-10.71-18.11-10.71l-92.78-16.27L49.69,307.83Z"/></clipPath></defs><title>part1</title><path class="cls-1" d="M309.32,134.91c-7,3.33-29.94-4.8-29.94-4.8,11.83-.37,15.52-8.51,15.52-8.51-17,4.26-27.56-3.6-43.11-9.61,6-2.92,21.31-2.21,21.31-2.21-23.29-14-50.27-7.4-50.27-7.4l4.06-12.93s-3.32,7.39-21.06,12.2S188.08,122,188.08,122s.17,7.55.37,7.4c.14,13.16,4.11,1.34,4.07.74,0,0,12.2,35.11,45.09,47.31s56.18-19.22,56.18-19.22l-25.5-10C285.29,152.28,309.32,134.91,309.32,134.91Z" transform="translate(-29.83 -60.42)"/><g class="cls-9"><path class="cls-10" d="M309.32,134.91c-15.06,4.1-27.12,5.36-36.76,4.91a72.18,72.18,0,0,0,7.92-2.8c1.32-.55.23-2.81-1-2.45-5.48,1.58-10.94,3.06-16.51,4.14a48.31,48.31,0,0,1-11.39-3.63,64.46,64.46,0,0,0,14.86-2.75c.47-.14,2.18-1.7,1.09-1.38a63.36,63.36,0,0,1-19,2.53,31,31,0,0,1-11.12-10.54c4.63.62,9.23,1.43,13.81,2.49,7,1.61,14,3.19,21.09,1.55.27-.06-1.34-.32-1.76-.22-8.75,2-18.4-2.16-27-3.61q-3.27-.56-6.55-1a13.73,13.73,0,0,1-1-2.05s-.59.63-1.56,1.76c-3.72-.41-7.47-.68-11.21-.76-.93,0-1.88.35-.35.44q5.55.32,11,.93c-1.4,1.66-3.38,4.1-5.54,7.09l-3.49-1.13c-.54-.17-2.44,1.29-1.91,1.58a32.73,32.73,0,0,0,3.84,1.77c-11.81,17.18-26,48.07,16.94,56C304.14,198.85,371.78,117.91,309.32,134.91Z" transform="translate(-29.83 -60.42)"/><path class="cls-10" d="M256.44,117c-13.66-4.21-29.83-2.15-42.15,5-.29.17.79,2,1.18,1.77a64.5,64.5,0,0,1,20.24-6.2,65.24,65.24,0,0,1,21.84,1.4C257.75,119,257,117.2,256.44,117Z" transform="translate(-29.83 -60.42)"/><path class="cls-11" d="M190.67,126c-1-.37-.37-15.66,11.18-22,17.19-9.43,18.3-9.43,18.3-9.43s-34.93,2.5-34.1,30.5l3.88,3.6.74-2.68" transform="translate(-29.83 -60.42)"/><path class="cls-11" d="M225.78,87.92c-.26,6-5.31,9.72-9.62,13.11a32.71,32.71,0,0,0-5.68,5.41,25.76,25.76,0,0,0-3.8,6.69,22.58,22.58,0,0,0-1.65,8.19c0,.21.31,0,.32-.16A26.82,26.82,0,0,1,211,106.3c3.51-4.33,8.74-6.83,12.22-11.18a12.14,12.14,0,0,0,3-7.41C226.22,87.44,225.79,87.73,225.78,87.92Z" transform="translate(-29.83 -60.42)"/><path class="cls-11" d="M249.46,94.63c-1.48.37-2.92.94-4.37,1.42l-4.51,1.5c-2.71.9-5.42,1.78-8.08,2.81-4.79,1.87-9.48,4.36-12.91,8.29a15.81,15.81,0,0,0-3.74,6.84c0,.15.18.06.21,0a20.66,20.66,0,0,1,3.46-6.22,24.4,24.4,0,0,1,5.52-4.81c4.64-3,10-4.62,15.17-6.35l4.64-1.55c1.52-.5,3.09-.94,4.57-1.55C249.55,94.92,249.72,94.57,249.46,94.63Z" transform="translate(-29.83 -60.42)"/></g><polygon class="cls-2" points="147.91 186.11 103.55 257.82 116.12 263.73 152.71 190.92 147.91 186.11"/><g class="cls-12"><path class="cls-13" d="M133.38,303.92s18.3,2.22,25.23,10-21.07,4.43-21.07,4.43l-5-11.09Z" transform="translate(-29.83 -60.42)"/><polygon class="cls-13" points="140.14 188.88 152.9 196.09 155.39 190.55 142.56 182.36 140.14 188.88"/></g><path class="cls-14" d="M136,341.16s22.54-28.46,58.77-29.94,85.75-3,85.75-3l-12.2,45.09S166.65,353.35,136,341.16Z" transform="translate(-29.83 -60.42)"/><path class="cls-15" d="M252,202.18,263.49,197s26.61,0,29.93,27.72-.73,24.76-.73,24.76Z" transform="translate(-29.83 -60.42)"/><path class="cls-5" d="M239.09,213.64l11.83-16.26s24.76-1.11,30.68,12.56,23.28,73.19,14.41,78-38.44,3-38.44,3Z" transform="translate(-29.83 -60.42)"/><g class="cls-16"><path class="cls-17" d="M271.62,202.18c-.37,1.11-8.13,30.31-8.13,30.31l14.41,51.75-14.41,3.32-17-61.35,25.14-24" transform="translate(-29.83 -60.42)"/></g><path class="cls-13" d="M192.15,163s-11.09-7.76-10.72,2.59,5.55,15.89,14.42,15.15S192.15,163,192.15,163Z" transform="translate(-29.83 -60.42)"/><path class="cls-2" d="M263.86,155.24c-3.7-11.83-15.43.18-15.53-1.48-1-.42-10.28-3.08-9.24-17.37.82-11.13-1.56-17.47-7.42-19.62-9-1.65-20.81,1.12-32.13,6.31-22.54,10.35.56,88.53.56,88.53l48.23-5-.74-36.6C261.27,178.16,267.05,165.48,263.86,155.24Z" transform="translate(-29.83 -60.42)"/><g class="cls-18"><polyline class="cls-13" points="215.27 84.37 219.98 118.19 225.25 116.53 221.37 83.54 215.27 84.37"/><path class="cls-19" d="M196.86,159.21c0,2.15-1,3.88-2.22,3.88s-2.21-1.73-2.21-3.88,1-3.88,2.21-3.88S196.86,157.07,196.86,159.21Z" transform="translate(-29.83 -60.42)"/><path class="cls-19" d="M238.38,150.59c.56,2.35-.07,4.51-1.41,4.83s-2.88-1.32-3.45-3.66.07-4.51,1.41-4.83S237.81,148.25,238.38,150.59Z" transform="translate(-29.83 -60.42)"/><path class="cls-20" d="M200.47,207.17c-.28-.83-13.59-51.84-9.71-77.06,0,0-5.26,40.75,7.77,77.06h1.94Z" transform="translate(-29.83 -60.42)"/></g><line class="cls-3" x1="204.46" y1="78.92" x2="227.56" y2="92.04"/><ellipse id="_Ellipse_3" data-name="&lt;Ellipse&gt;" class="cls-6" cx="160.84" cy="80.59" rx="11.83" ry="14.97"/><g class="cls-21"><path class="cls-3" d="M189.1,119.57c-.28,1.66,11.37,3.61,11.37,3.61l4.15,6.09S178,135.93,178,154c0,0-6.37-23.29-1.66-26.62S189.1,119.57,189.1,119.57Z" transform="translate(-29.83 -60.42)"/></g><ellipse id="_Ellipse_4" data-name="&lt;Ellipse&gt;" class="cls-6" cx="191.89" cy="74.3" rx="12.57" ry="15.91"/><g class="cls-22"><path class="cls-3" d="M236,120.13s-16.36-1.94-28.28,26.61l-4.06-25.87,21.44-10.35Z" transform="translate(-29.83 -60.42)"/></g><path class="cls-7" d="M198.43,162.63l34-8.5s12.2,39.55-7,42.88S198.43,162.63,198.43,162.63Z" transform="translate(-29.83 -60.42)"/><g class="cls-23"><path class="cls-24" d="M214.33,155.79s20,18.67,2.21,41.59c0,0,14.23,5.91,19.59-1.11s-.18-44.73-.18-44.73Z" transform="translate(-29.83 -60.42)"/><path class="cls-3" d="M204.16,159.12s1.11,7.21,7.76,6.1,23.84-8.32,23.84-8.32l-1.29-5.54Z" transform="translate(-29.83 -60.42)"/><path class="cls-25" d="M238.35,183.33s-16.26,3.14-15.52,13.86S241.31,190.72,238.35,183.33Z" transform="translate(-29.83 -60.42)"/></g><path class="cls-8" d="M197.69,206.25s-6.28,59.87-2.95,105l85.75-3L249.07,204.4Z" transform="translate(-29.83 -60.42)"/><g class="cls-26"><path class="cls-27" d="M240,205.39q-10.78,1.47-21.57,2.86c-7.2.93-14.5,1.55-21.64,2.86-.93.17-2.76,1.79-.78,1.69,7.15-.38,14.31-1.56,21.4-2.46q11.07-1.41,22.11-2.93C241.38,207.16,242.55,204.88,240,205.39Z" transform="translate(-29.83 -60.42)"/><path class="cls-27" d="M238.05,213.18c-3.75.2-7.52,1-11.23,1.51s-7.47,1-11.22,1.4q-5.34.61-10.69,1.12c-3.27.32-7.74,0-10.7,1.52-.9.46,0,1.8.69,2,3.33.81,7.08.1,10.46-.19,3.75-.32,7.51-.7,11.25-1.11s7.49-.88,11.22-1.37a93.4,93.4,0,0,0,11.67-1.79C241.58,215.69,239.54,213.1,238.05,213.18Z" transform="translate(-29.83 -60.42)"/><path class="cls-27" d="M242.66,222c-8,1.53-16.15,2.84-24.24,4.15l-12.78,2.06c-3.94.63-8.16.95-11.94,2.23-1.46.49-.2,2.17.87,2.18,4.08,0,8.22-.88,12.23-1.5q6.67-1,13.33-2.11,6.41-1,12.79-2.09c3.75-.62,7.67-1,11.31-2.18C246.28,224.05,244.18,221.68,242.66,222Z" transform="translate(-29.83 -60.42)"/><path class="cls-27" d="M247.8,235.89c-1.09-1.19-2.22-1-3.68-.8-2.51.32-5,.77-7.52,1.14-4.66.67-9.33,1.3-14,1.86s-9.36,1.08-14,1.54c-5,.49-10.13.66-15.1,1.49a1.59,1.59,0,0,0-.33.09c-4.25-4.57-9.36-8.56-13.92-12.82-.84-.79-4.13-.34-3,.82,4.68,4.6,9.45,9.6,14.82,13.4a2.37,2.37,0,0,0,1.3.21,1.51,1.51,0,0,0,1.44,1.06c8.77.18,17.76-1.15,26.45-2.14q6.48-.75,12.94-1.63c2.15-.3,4.31-.61,6.46-.93l3.76-.57,1.61-.25.47,0,.09,0,.23.08a1.9,1.9,0,0,0,2.06-.46l.14-.14A1.49,1.49,0,0,0,247.8,235.89Z" transform="translate(-29.83 -60.42)"/><path class="cls-27" d="M252.56,245.5c-1.24-.82-3-1.48-4.2-.3l0,0q-14.19,2.64-28.41,5.13c-5.07.89-10.14,1.75-15.21,2.61-4.63.78-9.66,1.14-14.11,2.66-1.26.43,1.41,1.48,1.84,1.47,5.17-.16,10.41-1.39,15.51-2.24,4.9-.82,9.78-1.66,14.67-2.51q14.94-2.59,29.84-5.39C253.51,246.77,253.32,246,252.56,245.5Z" transform="translate(-29.83 -60.42)"/><path class="cls-27" d="M260.53,256.16c-1.36-.81-2.79-.47-4.19,0-3.37,1.11-6.74,2.18-10.14,3.16q-9.28,2.65-18.75,4.55c-12.84,2.56-25.74,3.71-38.78,4.55-1.83.12.24,1.15,1.05,1.16,23.33,0,47.38-4.55,69.43-12.17a2.9,2.9,0,0,0,1,.07l.22-.07c.2,0,.56-.15.6-.41l0-.27C261.07,256.46,260.68,256.26,260.53,256.16Z" transform="translate(-29.83 -60.42)"/><path class="cls-27" d="M274.39,269.88q-20.08,3.44-40.37,5.38c-13.32,1.25-26.65,1.74-40,2.4-.85,0-2.59,1.84-2.62,1.84,26.15.32,52.7-2.85,78.47-7.21-.07.14,0,.22.28.13l1.61-.45a5.47,5.47,0,0,0,2.32-1.28C274.25,270.52,275.19,269.74,274.39,269.88Z" transform="translate(-29.83 -60.42)"/><path class="cls-27" d="M278.66,277.68c-29.56,5.75-59.27,9.41-89.18,12.71-2.34.25-.72,1.72.85,1.61,28.38-1.95,56.76-6.3,84.72-11.61a2.71,2.71,0,0,0,1.08.09c1.48-.37,2.95-.72,4.41-1.15C283,278.61,279.91,277.43,278.66,277.68Z" transform="translate(-29.83 -60.42)"/><path class="cls-27" d="M289.7,292.75c-.35-.73-2-1-2.71-1.24-3.59-1.12-8.15-.23-11.85-.06q-15,.71-29.95,2.28t-29.75,4c-10.07,1.65-20.41,3.22-30.22,6.07.31-.09,2.05,1.19,2.83,1.06,8.55-1.47,17-3.45,25.57-4.94s16.95-2.74,25.48-3.79,17.06-1.9,25.62-2.54q6.15-.45,12.32-.76,3.21-.16,6.43-.28l2.36-.08a15,15,0,0,0,2.56.86C289.08,293.5,290.15,293.7,289.7,292.75Z" transform="translate(-29.83 -60.42)"/><path class="cls-28" d="M193.26,328s13.3-49.9,93.7-51,42.13,25,42.13,25L193.26,328" transform="translate(-29.83 -60.42)"/></g><polygon class="cls-8" points="166.02 149.52 140.51 186.85 163.98 200.34 167.5 152.11 166.02 149.52"/><g class="cls-29"><path class="cls-27" d="M192.87,233.51a41,41,0,0,0-11.11-9.92c-1.55-1-1.33,1.72-.54,2.39,1.91,1.62,3.91,3.11,5.77,4.78s3.3,3.32,5.12,4.77C193.4,236.57,193.34,234.15,192.87,233.51Z" transform="translate(-29.83 -60.42)"/><path class="cls-27" d="M193.67,247.83c1,.49,3-.27,2.13-1.45-2.61-3.4-5.71-6.42-8.62-9.56s-5.74-6.66-9-9.5c-.83-.73-3.28-.37-2.37,1,2.38,3.7,5.69,7,8.65,10.22a104.21,104.21,0,0,0,8.58,8.75c-2.33-1.84-4.79-3.56-7.08-5.34-3.9-3-7.78-6.11-11.84-8.92-.57-.39-3,.45-2.94.54,3.57,3.19,7.38,6.1,11.15,9s7.58,6.35,11.71,8.94c.57.35,3.37-.42,3.2-.59A42.06,42.06,0,0,0,193.67,247.83Z" transform="translate(-29.83 -60.42)"/><path class="cls-27" d="M190,252.85c-5.79-3.46-11.61-7-17.63-10.06-.55-.28-2.91.35-2.64.54,5.35,3.69,11.18,6.86,16.83,10.09a3.5,3.5,0,0,0,2.24.14C188.94,253.54,190.48,253.13,190,252.85Z" transform="translate(-29.83 -60.42)"/></g><path class="cls-5" d="M190.67,209.94l7.76-4.43-5,76.88S179.21,228.42,190.67,209.94Z" transform="translate(-29.83 -60.42)"/><path class="cls-30" d="M257.93,151.5l-22.88-13a21.15,21.15,0,0,0,.34-3.77c0-9.39-6.13-17-13.67-17s-13.68,7.63-13.68,17a20.55,20.55,0,0,0,.85,5.89,5.93,5.93,0,0,0-1.88-.25,7.4,7.4,0,0,0-3.41,1c0-.13,0-.26,0-.4,0-8.87-5.81-16.08-12.94-16.08s-12.94,7.21-12.94,16.08,5.81,16.08,12.94,16.08c6.21,0,11.42-5.48,12.66-12.75a6.39,6.39,0,0,1,3.75-1.75,4.21,4.21,0,0,1,3.13,1.39l0,0c2.44,4.68,6.67,7.78,11.48,7.78,5.84,0,10.83-4.58,12.79-11l22.33,12.68Zm-67.26,3.37c-5.91,0-10.72-6.22-10.72-13.86s4.81-13.86,10.72-13.86,10.72,6.22,10.72,13.86S196.58,154.87,190.67,154.87Zm31.05-5.35c-6.32,0-11.46-6.64-11.46-14.79s5.14-14.8,11.46-14.8,11.46,6.64,11.46,14.8S228,149.52,221.72,149.52Z" transform="translate(-29.83 -60.42)"/><ellipse class="cls-7" cx="163.06" cy="81.32" rx="2.22" ry="2.77"/><path class="cls-7" d="M223.2,136.39a2.27,2.27,0,1,1-2.22-2.77A2.55,2.55,0,0,1,223.2,136.39Z" transform="translate(-29.83 -60.42)"/><ellipse class="cls-31" cx="206.31" cy="146.39" rx="6.1" ry="3.7" transform="translate(-63.33 5.43) rotate(-16.79)"/><path class="cls-2" d="M257.94,191.09c1.11,0,.74-98.69.74-98.69l-15.52,1.11L252,190.72Z" transform="translate(-29.83 -60.42)"/><path class="cls-2" d="M254.25,95.36l4.43-3s11.83-8.13,6.65-20.32S236.5,53.23,231,72.81s13.31,23.66,13.31,23.66Z" transform="translate(-29.83 -60.42)"/><polygon class="cls-8" points="224.97 179.64 249.18 129.93 217.39 126.97 218.5 146.19 224.97 179.64"/><g class="cls-32"><path class="cls-27" d="M305.7,190.47c-11-.68-22.24-.05-33.29-.17s-21.91-.92-32.81-.64a6.82,6.82,0,0,0,2.48,1.89c10.85.94,21.92.78,32.81.91q8.25.09,16.5.09c5.55,0,11.23.25,16.75-.34A6.1,6.1,0,0,0,305.7,190.47Z" transform="translate(-29.83 -60.42)"/><path class="cls-27" d="M293,202.3l-1.56-.54a3.14,3.14,0,0,0-2.09.31q-10.62-.19-21.19-1.25c-8.15-.82-16.17-2.53-24.3-3.45.21-.41.1-.89-.53-.89a.92.92,0,0,0-.89,1.12c-.88.42-1.41,1.23,0,1.65,7.7,2.28,16.07,3.06,24,3.91,8.3.89,16.65,1.36,25,1.45C292.44,204.62,295,203,293,202.3Z" transform="translate(-29.83 -60.42)"/><path class="cls-27" d="M280.78,214.42c-.52-.49-2.24-1-2.8-.24l-.13.18a.73.73,0,0,0-.15.58c-.1,0-.26,0-.64-.1-.76-.12-1.64-.06-2.41-.1-1.46-.06-2.91-.15-4.36-.27a46.5,46.5,0,0,1-8.93-1.55c-6.06-1.79-9.72-5.46-14.13-9.69-.45-.44-2.79-1.11-2.25.24,2.81,7.1,12.06,11,18.92,12.45a75.75,75.75,0,0,0,12.93,1.37C278.59,217.37,283.87,217.29,280.78,214.42Z" transform="translate(-29.83 -60.42)"/><path class="cls-27" d="M267.68,222.64A22,22,0,0,1,249,212.85c-.48-.7-2.55-1.78-1.69-.1,4.09,8,13.34,13.54,22.34,13C270.86,225.67,268.81,222.65,267.68,222.64Z" transform="translate(-29.83 -60.42)"/></g><path class="cls-5" d="M248,198.85l-15.52,3.33s-1.85,59.14,45.83,74.66l-1.48-17.37S248.33,227.68,248,198.85Z" transform="translate(-29.83 -60.42)"/><path class="cls-33" d="M235.86,205.14c.06-.17-.15-.11-.2,0a3.66,3.66,0,0,0,.08,3.36c0,.08.17,0,.15-.1A4.5,4.5,0,0,1,235.86,205.14Z" transform="translate(-29.83 -60.42)"/><path class="cls-33" d="M236.2,211c0-.13-.26.05-.25.15a14.67,14.67,0,0,0,.42,3c0,.12.21-.05.21-.12A16,16,0,0,0,236.2,211Z" transform="translate(-29.83 -60.42)"/><path class="cls-33" d="M237,218c0-.18-.28,0-.29.13a5.14,5.14,0,0,0,.38,3c.06.11.26-.05.24-.15A13.43,13.43,0,0,1,237,218Z" transform="translate(-29.83 -60.42)"/><path class="cls-33" d="M237.74,223.54c-.05-.12-.24.06-.22.15a10.19,10.19,0,0,0,.71,2.61c.07.14.29-.06.28-.17A10.85,10.85,0,0,0,237.74,223.54Z" transform="translate(-29.83 -60.42)"/><path class="cls-33" d="M239.19,228.71c-.07-.15-.33.08-.28.2a11,11,0,0,0,1.1,2.62c.08.13.28-.12.26-.22A11.8,11.8,0,0,0,239.19,228.71Z" transform="translate(-29.83 -60.42)"/><path class="cls-33" d="M241.69,235.77a11.76,11.76,0,0,1-.61-1.52c0-.12-.25.06-.23.16a5.44,5.44,0,0,0,1.41,3c.1.08.29-.1.25-.21C242.31,236.72,241.94,236.27,241.69,235.77Z" transform="translate(-29.83 -60.42)"/><path class="cls-33" d="M243.34,239c-.07-.12-.28.06-.24.16a16,16,0,0,0,1.5,3c.09.11.28-.11.25-.21A16.58,16.58,0,0,0,243.34,239Z" transform="translate(-29.83 -60.42)"/><path class="cls-33" d="M247.71,247.15c-.28-.44-.66-.8-.93-1.25a5.77,5.77,0,0,1-.59-1.29c0-.12-.25.06-.22.17a4,4,0,0,0,1.54,2.61C247.62,247.45,247.77,247.24,247.71,247.15Z" transform="translate(-29.83 -60.42)"/><path class="cls-33" d="M250,251.43c-.27-.32-.56-.62-.82-.94-.08-.09-.29.12-.21.22.24.31.45.65.69,1a4.17,4.17,0,0,0,.77.9c.1.08.31-.1.26-.22A4.1,4.1,0,0,0,250,251.43Z" transform="translate(-29.83 -60.42)"/><path class="cls-33" d="M253.52,255.49c-.33-.31-.7-.6-1-.92-.08-.08-.27.11-.19.19.32.34.6.7.92,1s.58.75.95.83a.16.16,0,0,0,.17-.18C254.27,256.07,253.79,255.75,253.52,255.49Z" transform="translate(-29.83 -60.42)"/><path class="cls-33" d="M258.77,261.26a2.91,2.91,0,0,0-.82-.78c-.33-.26-.67-.49-1-.74-.1-.08-.3.13-.21.21l.94.82a3,3,0,0,0,.95.63C258.68,261.42,258.8,261.33,258.77,261.26Z" transform="translate(-29.83 -60.42)"/><path class="cls-33" d="M261,263c-.12,0-.34.2-.19.27a8.06,8.06,0,0,1,1.47,1c.41.37.74.81,1.13,1.19.09.09.28-.1.24-.2A4.83,4.83,0,0,0,261,263Z" transform="translate(-29.83 -60.42)"/><path class="cls-33" d="M269.13,268.2c-.36-.15-.76-.22-1.12-.37a4.34,4.34,0,0,1-1.1-.69c-.1-.09-.31.13-.22.22a3.36,3.36,0,0,0,2.27,1.11C269.06,268.47,269.27,268.27,269.13,268.2Z" transform="translate(-29.83 -60.42)"/><path class="cls-33" d="M275.4,271.54a16.18,16.18,0,0,0-3-1c-.11,0-.3.2-.17.25a17.57,17.57,0,0,0,3,1C275.33,271.79,275.53,271.6,275.4,271.54Z" transform="translate(-29.83 -60.42)"/><path class="cls-33" d="M281.28,272.65a8.54,8.54,0,0,1-2.93-.34c-.11,0-.32.19-.18.25a4.25,4.25,0,0,0,3,.31C281.26,272.85,281.43,272.64,281.28,272.65Z" transform="translate(-29.83 -60.42)"/><path class="cls-33" d="M285.36,273a3.19,3.19,0,0,0-.53-.06l-.57,0c-.13,0-.35.3-.15.31s.39,0,.59,0a2.67,2.67,0,0,0,.56-.06C285.36,273.27,285.53,273,285.36,273Z" transform="translate(-29.83 -60.42)"/><path class="cls-33" d="M245.45,201.36c0-.13-.27,0-.26.15a18.58,18.58,0,0,0,.49,3.33c0,.12.21-.06.21-.13A19,19,0,0,0,245.45,201.36Z" transform="translate(-29.83 -60.42)"/><path class="cls-33" d="M246.67,209.46c0-.13-.28.07-.24.18a17.2,17.2,0,0,0,1.12,3.31c0,.1.21,0,.2-.12A19.43,19.43,0,0,0,246.67,209.46Z" transform="translate(-29.83 -60.42)"/><path class="cls-33" d="M248.53,216.12c0-.11-.24.06-.22.16a12.36,12.36,0,0,0,.67,2.61c.05.11.23,0,.22-.13A14.4,14.4,0,0,0,248.53,216.12Z" transform="translate(-29.83 -60.42)"/><path class="cls-33" d="M251.74,224.65a8.15,8.15,0,0,1-.75-1,2.66,2.66,0,0,1-.3-1.2c0-.16-.26,0-.26.12,0,.8.27,2,1.11,2.32C251.65,224.93,251.81,224.75,251.74,224.65Z" transform="translate(-29.83 -60.42)"/><path class="cls-33" d="M252.59,226.88c0-.15-.26,0-.25.12a4.21,4.21,0,0,0,1,2.65c.08.07.24-.09.21-.18A10.63,10.63,0,0,1,252.59,226.88Z" transform="translate(-29.83 -60.42)"/><path class="cls-33" d="M256.56,235a10.54,10.54,0,0,1-1.15-1,3,3,0,0,1-.64-1.6c0-.12-.19,0-.19.1,0,1.06.59,2.57,1.8,2.72C256.47,235.27,256.64,235.09,256.56,235Z" transform="translate(-29.83 -60.42)"/><path class="cls-33" d="M261,240.15a13.06,13.06,0,0,0-2.53-2.28c-.09-.07-.28.11-.2.2a13.15,13.15,0,0,0,2.57,2.26C260.92,240.38,261.05,240.22,261,240.15Z" transform="translate(-29.83 -60.42)"/><path class="cls-33" d="M266.24,244.12A12.19,12.19,0,0,0,264,242.7c-.11-.07-.34.2-.2.29a12.94,12.94,0,0,0,2.28,1.38C266.13,244.4,266.34,244.21,266.24,244.12Z" transform="translate(-29.83 -60.42)"/><path class="cls-33" d="M271,246.44a9.17,9.17,0,0,0-2.22-.73c-.11,0-.31.19-.18.24a9.89,9.89,0,0,0,2.25.74C270.91,246.71,271.07,246.51,271,246.44Z" transform="translate(-29.83 -60.42)"/><path class="cls-33" d="M275.75,247.84a4.05,4.05,0,0,1-2.2-.32c-.12-.06-.36.22-.21.31a2.66,2.66,0,0,0,2.34.29C275.75,248.09,275.93,247.84,275.75,247.84Z" transform="translate(-29.83 -60.42)"/><path class="cls-33" d="M278.61,248.28a.93.93,0,0,1-.95.28c-.14-.05-.4.24-.23.32a1,1,0,0,0,1.36-.53C278.81,248.23,278.68,248.22,278.61,248.28Z" transform="translate(-29.83 -60.42)"/><path class="cls-33" d="M276.53,206.5a4,4,0,0,0-.72-.57l-.75-.54c-.1-.07-.3.14-.21.21a9,9,0,0,0,1.51,1.1C276.45,206.74,276.59,206.58,276.53,206.5Z" transform="translate(-29.83 -60.42)"/><path class="cls-33" d="M277.93,211c0-.13-.26.06-.23.17a17.57,17.57,0,0,0,.85,3.3c.06.14.28-.06.27-.16A18.41,18.41,0,0,0,277.93,211Z" transform="translate(-29.83 -60.42)"/><path class="cls-33" d="M279.16,216.5c-.05-.15-.3.07-.27.19a9.89,9.89,0,0,0,.76,2.57c.06.12.24,0,.23-.14A11,11,0,0,0,279.16,216.5Z" transform="translate(-29.83 -60.42)"/><path class="cls-33" d="M280.6,221c-.06-.11-.26.06-.22.16.18.48.33,1,.52,1.44a3.63,3.63,0,0,0,.59,1.18c.08.09.25-.09.24-.17A9.14,9.14,0,0,0,280.6,221Z" transform="translate(-29.83 -60.42)"/><path class="cls-33" d="M282.37,225.41c0-.1-.21,0-.2.12a11.8,11.8,0,0,0,.47,3c0,.11.2-.06.2-.12A13,13,0,0,0,282.37,225.41Z" transform="translate(-29.83 -60.42)"/><path class="cls-33" d="M283.58,231.32c0-.15-.24,0-.25.09a4.91,4.91,0,0,0,.34,3c.08.13.3-.06.29-.17A19.52,19.52,0,0,1,283.58,231.32Z" transform="translate(-29.83 -60.42)"/><path class="cls-33" d="M284.31,236.13c0-.13-.21,0-.22.08a4.38,4.38,0,0,0,.35,3c.08.12.26-.07.24-.18A9.6,9.6,0,0,1,284.31,236.13Z" transform="translate(-29.83 -60.42)"/><path class="cls-33" d="M285.08,240.91c0-.2-.31,0-.31.16s0,.54,0,.81a1.5,1.5,0,0,0,0,.7c.07.16.28-.06.31-.15A4.56,4.56,0,0,0,285.08,240.91Z" transform="translate(-29.83 -60.42)"/><path class="cls-33" d="M291.27,261.26c-.07-.13-.3.07-.25.18a15.57,15.57,0,0,0,1.6,3.28c.07.09.21-.09.19-.16A15.72,15.72,0,0,0,291.27,261.26Z" transform="translate(-29.83 -60.42)"/><path class="cls-33" d="M293.18,267.15c-.05-.11-.26.06-.22.16a7.06,7.06,0,0,0,.78,1.83c0,.06.15-.05.14-.1A8.12,8.12,0,0,0,293.18,267.15Z" transform="translate(-29.83 -60.42)"/><path class="cls-33" d="M294.64,271.25c0-.14-.21,0-.22.1,0,.27,0,.55,0,.82a2,2,0,0,0,0,.69c0,.14.23-.05.25-.11A5.8,5.8,0,0,0,294.64,271.25Z" transform="translate(-29.83 -60.42)"/><path class="cls-33" d="M295.42,275.53h0a.69.69,0,0,0,0-.24h0v0c-.06,0-.21.09-.22.15a.86.86,0,0,0,0,.27h0a.08.08,0,0,0,0,.05h0C295.22,275.79,295.43,275.65,295.42,275.53Z" transform="translate(-29.83 -60.42)"/><path class="cls-33" d="M191.52,211.33c-.05-.14-.29.08-.27.19a4,4,0,0,1-.31,2.17c-.07.19.19.07.24,0A2.66,2.66,0,0,0,191.52,211.33Z" transform="translate(-29.83 -60.42)"/><path class="cls-33" d="M190.08,216.89c0-.19-.29,0-.3.15a11.81,11.81,0,0,0,.05,2.59c0,.11.2,0,.21-.1A12.93,12.93,0,0,0,190.08,216.89Z" transform="translate(-29.83 -60.42)"/><path class="cls-33" d="M189.34,222.44c0-.18-.29,0-.29.14a14.54,14.54,0,0,0,0,2.95c0,.16.25,0,.26-.1A16.58,16.58,0,0,0,189.34,222.44Z" transform="translate(-29.83 -60.42)"/><path class="cls-33" d="M189.35,227.61c0-.2-.31,0-.31.15,0,.34,0,.67,0,1a3.16,3.16,0,0,0,0,.87c.05.16.28-.07.3-.15A7.39,7.39,0,0,0,189.35,227.61Z" transform="translate(-29.83 -60.42)"/><path class="cls-33" d="M189.07,231.7a1.72,1.72,0,0,0,0,2.36c.07.06.22-.08.18-.16a1.92,1.92,0,0,1,0-2.11C189.46,231.58,189.19,231.55,189.07,231.7Z" transform="translate(-29.83 -60.42)"/><path class="cls-33" d="M189,236.53a1.07,1.07,0,0,1,.24-1c.11-.11,0-.22-.11-.11a1.55,1.55,0,0,0-.5,1c0,.31.06.93.43,1,.09,0,.24-.09.23-.19S189.09,236.79,189,236.53Z" transform="translate(-29.83 -60.42)"/><path class="cls-33" d="M189,241.28a2,2,0,0,1,0-1.05c0-.14-.18,0-.21.06a2.29,2.29,0,0,0-.13,1.1c0,.29.16.73.45.85.08,0,.21-.09.2-.17A5.77,5.77,0,0,0,189,241.28Z" transform="translate(-29.83 -60.42)"/><path class="cls-33" d="M189.33,245.4c0-.16-.2,0-.22.06a2,2,0,0,0,.34,1.92c.09.08.25-.09.22-.19A3.56,3.56,0,0,1,189.33,245.4Z" transform="translate(-29.83 -60.42)"/><path class="cls-33" d="M189.66,249.45c0-.11-.17,0-.18.06a2.87,2.87,0,0,0,.37,2.29c.08.1.23-.1.21-.18A8.93,8.93,0,0,1,189.66,249.45Z" transform="translate(-29.83 -60.42)"/><path class="cls-33" d="M190.43,254.6c0-.16-.26,0-.26.13a10.58,10.58,0,0,0,0,2.25c0,.14.25-.06.27-.13A13,13,0,0,0,190.43,254.6Z" transform="translate(-29.83 -60.42)"/><path class="cls-33" d="M190.81,259.41c0-.17-.27,0-.27.13,0,.47,0,.94,0,1.41a2.79,2.79,0,0,0,.07,1.19c.06.11.2-.05.22-.11A8.52,8.52,0,0,0,190.81,259.41Z" transform="translate(-29.83 -60.42)"/><path class="cls-33" d="M193.15,258a15.89,15.89,0,0,0-.45,2.57c0,.18.22,0,.24-.06a13.61,13.61,0,0,0,.47-2.61C193.41,257.76,193.17,258,193.15,258Z" transform="translate(-29.83 -60.42)"/><path class="cls-33" d="M193.71,250.93c0-.17-.18-.05-.22,0a4.47,4.47,0,0,0-.32,3.05c0,.12.24,0,.23-.13A7.48,7.48,0,0,1,193.71,250.93Z" transform="translate(-29.83 -60.42)"/><path class="cls-33" d="M193.45,246.19a13.59,13.59,0,0,0-.39,2.62c0,.16.24,0,.26-.1a13,13,0,0,0,.39-2.62C193.71,245.92,193.47,246.11,193.45,246.19Z" transform="translate(-29.83 -60.42)"/><path class="cls-33" d="M193.76,240.93c0-.16-.24,0-.26.09a14.33,14.33,0,0,0,0,2.62c0,.16.25,0,.26-.12A13.18,13.18,0,0,0,193.76,240.93Z" transform="translate(-29.83 -60.42)"/><path class="cls-33" d="M194,235.48a13.68,13.68,0,0,0-.47,2.63c0,.17.28,0,.3-.11a11.37,11.37,0,0,0,.35-2.59C194.14,235.29,194,235.43,194,235.48Z" transform="translate(-29.83 -60.42)"/><path class="cls-33" d="M194.5,231.66c0-.14-.25.05-.26.12a13,13,0,0,0,0,2.25c0,.17.27,0,.27-.13A10.48,10.48,0,0,0,194.5,231.66Z" transform="translate(-29.83 -60.42)"/><path class="cls-33" d="M194.31,226.6a14.08,14.08,0,0,0-.48,2.59c0,.18.23.05.25-.07a12.61,12.61,0,0,0,.41-2.58C194.49,226.41,194.32,226.55,194.31,226.6Z" transform="translate(-29.83 -60.42)"/><path class="cls-33" d="M195.21,221.37c0-.14-.15-.06-.19,0a4.19,4.19,0,0,0-.58,3.07c0,.17.27,0,.26-.12A6.94,6.94,0,0,1,195.21,221.37Z" transform="translate(-29.83 -60.42)"/><path class="cls-33" d="M195.32,217.32a9.28,9.28,0,0,0-.41,1.88c0,.19.23.05.26-.06a8.62,8.62,0,0,0,.38-1.87C195.55,217.13,195.35,217.26,195.32,217.32Z" transform="translate(-29.83 -60.42)"/><path class="cls-33" d="M195.71,213.26a10.77,10.77,0,0,0-.42,1.87c0,.18.22.05.24-.06a7.6,7.6,0,0,0,.44-1.87C196,213,195.74,213.2,195.71,213.26Z" transform="translate(-29.83 -60.42)"/><path class="cls-33" d="M197.26,208a3.15,3.15,0,0,0-.94,2.73c0,.18.28,0,.28-.13a3.87,3.87,0,0,1,.84-2.49C197.56,208,197.38,207.92,197.26,208Z" transform="translate(-29.83 -60.42)"/><path class="cls-3" d="M334.08,224.73s-1.85,49.9-66.9,59.88-79.47,51.74-79.47,51.74-23.82-25-57.29-31.05c-37-6.65-47.31-35.48-47.31-35.48-5.43,16.9,2.2,36.76,5.18,43.48a73.52,73.52,0,0,0-16.66,8.26c-.09.07-.12.29,0,.2a94.62,94.62,0,0,1,16.78-8.1c.58,1.28,1,2,1,2l108.66,42.88,155.61-68Z" transform="translate(-29.83 -60.42)"/><path class="cls-34" d="M61.68,317.5s37-46.2,125.3,23.29c0,0,15.89-29.2,91.66-52.86s78.73-45.83,78.73-45.83L361.43,306,201,363.7Z" transform="translate(-29.83 -60.42)"/><path id="_Clipping_Path_2" data-name="&lt;Clipping Path&gt;" class="cls-3" d="M197.69,369.62s-.37-43.62,76.88-69.49,89.08-41.77,89.08-41.77l10,37.33Z" transform="translate(-29.83 -60.42)"/><g class="cls-35"><path class="cls-34" d="M363.07,265.89c0-.21-.24-.1-.34,0-7.46,6.52-16.28,11.2-25.33,15.1-9.66,4.18-19.61,7.73-29.44,11.48q-15.58,5.94-31.16,11.89a247.64,247.64,0,0,0-26,11.26,94.22,94.22,0,0,0-22.53,15.78c-.81.79-1.6,1.62-2.38,2.45-.14.16,0,.3.15.15a90.93,90.93,0,0,1,22.55-16.83,220.9,220.9,0,0,1,25.83-11.52c10.2-3.95,20.44-7.8,30.67-11.69,10-3.8,20-7.44,29.86-11.54,8.94-3.72,17.74-8.07,25.37-14.12q1.17-.93,2.31-1.92,1,6.75,2.08,13.51c0,.28.49,0,.45-.22Q364.14,272.77,363.07,265.89Z" transform="translate(-29.83 -60.42)"/></g><path class="cls-3" d="M171.82,346.81c-2.07-6.56-6.92-11.86-12.34-15.91-5.77-4.32-12.34-7.45-19-10.22a107.06,107.06,0,0,0-24.75-7.46,60,60,0,0,0-23.21.63A44.08,44.08,0,0,0,73.4,323.5c-.68.6-1.33,1.23-2,1.89-.2.22,0,.43.22.21,10.81-10.78,26.57-14.08,41.36-12.28a98.57,98.57,0,0,1,24.68,6.77,99.85,99.85,0,0,1,19.44,9.81,44.34,44.34,0,0,1,8.51,7.37,32.17,32.17,0,0,1,5.87,9.76C171.58,347.19,171.86,347,171.82,346.81Z" transform="translate(-29.83 -60.42)"/><path class="cls-3" d="M155.85,343.92c-3.64-8.65-11.08-15.31-19.67-18.89-10.29-4.29-22-4.16-32.66-1.35-5.47,1.45-10.9,3.72-15,7.74-.13.13,0,.26.13.13a32.77,32.77,0,0,1,13.65-7.13,58.28,58.28,0,0,1,16.23-2.29c10.09,0,20.13,3.14,27.82,9.8a33.52,33.52,0,0,1,9.06,12.31C155.51,344.46,155.94,344.12,155.85,343.92Z" transform="translate(-29.83 -60.42)"/><path class="cls-3" d="M354.3,259.09c0-.19-.25-.11-.34,0-8.06,9.25-18.9,15.52-30.21,20-12.95,5.11-26.63,7.93-40,11.65A194.39,194.39,0,0,0,250,303.36a148.78,148.78,0,0,0-29.61,19,123.48,123.48,0,0,0-12.65,12.09c-1.91,2.1-3.75,4.27-5.49,6.52a33.1,33.1,0,0,0-4.83,7.89,17.15,17.15,0,0,0-1.1,4.16c0,.19.23.06.25-.06,1-6.31,5.47-11.53,9.52-16.2a122.56,122.56,0,0,1,12.33-12.32,146.22,146.22,0,0,1,29.4-19.57,188.4,188.4,0,0,1,33.46-13c13.21-3.79,26.74-6.52,39.66-11.27,11-4.05,21.78-9.66,30.22-18,.95-.93,1.86-1.9,2.74-2.9q.57,4.05,1.16,8.1c0,.28.48,0,.45-.22Q354.91,263.32,354.3,259.09Z" transform="translate(-29.83 -60.42)"/><path class="cls-4" d="M49.78,305.91,174,340.05s-2.22,9.61,15.52,7.76,15.16-11.46,15.16-11.46L379.18,271.3l72.44,143.78L275.68,433.19s2.22,5.18-12.93,6.28-18.11-10.71-18.11-10.71l-92.78-16.27L49.69,307.83Z" transform="translate(-29.83 -60.42)"/><g class="cls-36"><polyline class="cls-37" points="15.73 246.04 140.47 283.46 214.81 368.33 222.8 386.58 245.25 380.75 245.85 372.77 177.9 278.47 355.86 212.77 342.55 194.48 14.9 231.9 15.73 246.04"/></g><path class="cls-38" d="M159.31,75.17c.08-.41.17-.88.24-1.38a.11.11,0,0,0,0-.11c.55-4,.26-10.21-4.83-9.74-3.8.35-5.89,3.31-7.21,6.61h0A37.78,37.78,0,0,0,146,75.3c-.91,3.58-1.9,7.14-2.88,10.69s-2,7-2.76,10.61a.23.23,0,0,0-.12.31q1.53,4.55,3.05,9.1a.31.31,0,0,0,.55.09,20.78,20.78,0,0,1,3.05-3.17c1.08-.9,2.3-1.57,3.44-2.39a5.87,5.87,0,0,0,2-3.29q.75-2.34,1.52-4.68,1.53-4.66,3-9.35A83.58,83.58,0,0,0,159.31,75.17ZM152.65,65.1a5.53,5.53,0,0,1,3.68-.51c1.51.38,2.11,1.82,2.49,3.19a12.79,12.79,0,0,1,.33,4.81,81.85,81.85,0,0,0-11.07-2.11A10,10,0,0,1,152.65,65.1Zm-8.91,40.23c-.38-1.1-.75-2.21-1.12-3.32.6-.47,1.13-1.1,2-.79s1,1.11,1.3,1.81A20.69,20.69,0,0,0,143.74,105.33Zm6-5.06a31.78,31.78,0,0,0-3.31,2.33,2.77,2.77,0,0,0-1.71-1.92,2.25,2.25,0,0,0-2.25.81l-1.59-4.72,0-.08a13.56,13.56,0,0,1,1-1.45,3.17,3.17,0,0,1,1.33-1.09c1.41-.35.47,2.3.61,3,.05.25.39.22.47,0a8.23,8.23,0,0,1,.86-1.6,4,4,0,0,1,1.21-1.35c1.26-.54,1,1.28.93,1.81a13.48,13.48,0,0,1-.26,1.67c0,.13-.06.25-.08.38-.06.28.37.43.44.13,0-.15.07-.3.1-.45a4.49,4.49,0,0,1,.52-1.19c.23-.36.85-1.23,1.35-1.33,1-.18.42,1.42.34,1.76a11,11,0,0,1-.6,1.84c-.09.24.3.43.42.19s1.33-3,1.55-2.92.22.86.22,1A15.13,15.13,0,0,1,151,99,4,4,0,0,1,149.72,100.27Zm6.81-17.79-2.82,8.65-1.57,4.81c-.14.43-.28.86-.41,1.29a4,4,0,0,0,0-.49c0-.32-.14-1-.5-1.12a.38.38,0,0,0-.4,0c.26-.71.5-1.43.76-2.14.51-1.43,1.09-2.85,1.51-4.3a.16.16,0,0,0-.3-.09c-.58,1.34-1,2.76-1.52,4.14-.31.87-.64,1.74-.94,2.61.05-.47.06-1-.5-1.18s-1.39.55-1.8,1a79.4,79.4,0,0,0,2.79-9.5.13.13,0,0,0-.25-.07c-1,3.11-1.79,6.27-2.8,9.38,0-.19,0-.39,0-.58,0-.57-.17-1.34-.85-1.45s-1.35.71-1.74,1.16a7.47,7.47,0,0,0-.66.93c.44-1.6,1-3.17,1.44-4.77,0-.16-.17-.21-.24-.07a23,23,0,0,0-1.24,4,.43.43,0,0,0,0-.11,1.14,1.14,0,0,0-1-1,2.74,2.74,0,0,0-1.72,1.12,7.63,7.63,0,0,0-.66.82c.74-2.5,1.39-5,2.09-7.53.81-2.88,1.62-5.76,2.4-8.65.27-1,.53-2.06.79-3.1a4,4,0,0,0,1,.3l1.24.27c-.9,3.38-1.87,6.8-2.51,10.24,0,.19.24.29.3.09,1-3.35,1.75-6.84,2.52-10.26h0l3.06.69.89.2,0,0c-.63,2.18-1.19,4.38-1.74,6.58a.15.15,0,0,0,.28.09c.61-2.19,1.23-4.37,1.77-6.58a.13.13,0,0,0,0-.06l1.87.41.35.08c-.24.82-.44,1.66-.64,2.5s-.5,1.86-.67,2.8a.13.13,0,0,0,.26.07,39.13,39.13,0,0,0,1.33-5.3,13.69,13.69,0,0,0,2.09.38C157.35,80,156.93,81.26,156.53,82.48Zm-1.61-4.77L151.85,77c-1-.23-2-.45-3.07-.66-.51-.11-1-.21-1.55-.3a4.13,4.13,0,0,0-.85,0c0-.1.05-.2.07-.29a8.21,8.21,0,0,0,1.75.25.13.13,0,0,0,0-.25,7.38,7.38,0,0,0-1.71-.3c.34-1.34.71-2.66,1.17-4a4.65,4.65,0,0,0,1.6.22.13.13,0,0,0,0-.26,11,11,0,0,0-1.54-.25l.11-.29c3.74.7,7.48,1.31,11.18,2.22,0,.12,0,.24-.05.36-.41-.12-.82-.2-1.23-.3a.07.07,0,0,0,0,.13c.41.14.82.28,1.23.4-.08.47-.16.94-.26,1.41-.2.88-.43,1.76-.69,2.62-1.08-.26-2.17-.45-3.25-.7-.13,0-.19.17-.06.2,1.08.25,2.15.55,3.23.78l-.09.31A25.14,25.14,0,0,0,154.92,77.71Z" transform="translate(-29.83 -60.42)"/><path class="cls-38" d="M153.43,75.49l-.86-.12a7.49,7.49,0,0,0,1.16-1.09c.18-.23.4-.56.26-.87s-.58-.28-.86-.18a.79.79,0,0,0-.56.72.06.06,0,0,0,.11,0,.89.89,0,0,1,.62-.54c.2,0,.45,0,.44.26a.68.68,0,0,1-.16.33,5.74,5.74,0,0,1-1.47,1.31c-.1.07-.12.26,0,.29.42.08.85.14,1.28.2C153.64,75.87,153.65,75.52,153.43,75.49Z" transform="translate(-29.83 -60.42)"/><path class="cls-38" d="M154.56,72.8a1.57,1.57,0,0,0-2.46.26c-.62.81-.9,2.43-.13,3.25a1.47,1.47,0,0,0,2.24-.12h0l.1-.16a.15.15,0,0,0,0-.09C154.76,75.07,155.17,73.55,154.56,72.8Zm-.46,3.08a1.24,1.24,0,0,1-2.28-.75,2.79,2.79,0,0,1,.73-2.14,1.28,1.28,0,0,1,1.54-.23,1.14,1.14,0,0,1,.44,1,7.17,7.17,0,0,1-.4,2Z" transform="translate(-29.83 -60.42)"/><path class="cls-38" d="M157.54,67.41a1.1,1.1,0,0,0,.69.13c.07,0,.12-.15,0-.19a2.55,2.55,0,0,0-.32-.07,2.07,2.07,0,0,1-.33-.1C157.46,67.12,157.39,67.35,157.54,67.41Z" transform="translate(-29.83 -60.42)"/><path class="cls-38" d="M158.27,68.36a.12.12,0,0,0,.07-.22,4.38,4.38,0,0,0-1.08-.34.13.13,0,0,0-.08.24A4.37,4.37,0,0,0,158.27,68.36Z" transform="translate(-29.83 -60.42)"/><path class="cls-38" d="M158.38,69.21c.07,0,.14-.09.1-.16-.23-.31-.77-.34-1.12-.33-.17,0-.18.27,0,.27a2.62,2.62,0,0,1,.56.09A1.57,1.57,0,0,0,158.38,69.21Z" transform="translate(-29.83 -60.42)"/><path class="cls-38" d="M157.88,69.9a.53.53,0,0,0,.39,0,.13.13,0,0,0,0-.16c-.15-.22-.54-.25-.78-.31a.16.16,0,0,0-.09.31Z" transform="translate(-29.83 -60.42)"/><path class="cls-38" d="M158.26,70.45a1.2,1.2,0,0,0-.67-.29c-.22,0-.33.29-.11.33s.41.15.63.2S158.37,70.56,158.26,70.45Z" transform="translate(-29.83 -60.42)"/><path class="cls-38" d="M157.38,70.82a.18.18,0,0,0-.1.34c.17.06.43.18.6.08a.15.15,0,0,0,.06-.19C157.83,70.87,157.57,70.85,157.38,70.82Z" transform="translate(-29.83 -60.42)"/><path class="cls-38" d="M157.49,71.35c-.12,0-.24,0-.35-.1s-.34.16-.16.25a.56.56,0,0,0,.53,0A.11.11,0,0,0,157.49,71.35Z" transform="translate(-29.83 -60.42)"/><path class="cls-38" d="M145.39,148.74a18.93,18.93,0,0,0-3.45,0,10.81,10.81,0,0,0-1.24.06,20.79,20.79,0,0,0-1.9-3.22q-1.53-2.37-3.19-4.66a19.54,19.54,0,0,0-1.93-2.54,16.59,16.59,0,0,0,1-1.39,10.9,10.9,0,0,0,1.52-2.64.8.8,0,0,0-1.33-.78A10.86,10.86,0,0,0,133.3,136a15,15,0,0,0-.87,1.64,4.33,4.33,0,0,0-1.44-.1c-1.07.09-2.14.14-3.22.17-2.14.07-4.28.14-6.41.26-.65,0-1.33.05-2,.15a20.43,20.43,0,0,0-1.84-3.61.53.53,0,0,0-1,.41,21.72,21.72,0,0,0,1.44,3.84,5.16,5.16,0,0,0-.78,1.2,55.11,55.11,0,0,0-3.79,9.33,93.26,93.26,0,0,1-14.57.3.8.8,0,0,0-.85,1,40.69,40.69,0,0,0-3,4.9C94,157.2,93,159,92,160.77a10.8,10.8,0,0,0-5.27-.15c-1.14.2-.66,2,.48,1.75a26.09,26.09,0,0,1,4.84,0,71.75,71.75,0,0,1,6,10.87,14,14,0,0,0-1.12,1.54c-.67.92-2,2.27-1.84,3.48a.55.55,0,0,0,.7.53c1.18-.37,1.75-1.91,2.37-2.89.33-.52.93-1.17,1.28-1.84a90.09,90.09,0,0,0,10.26.43c.69,0,1.47,0,2.18,0,.3.4.64.76,1,1.14a21,21,0,0,1,1.41,2c.62,1,2.21.06,1.56-.92a24.12,24.12,0,0,0-1.49-2c-.29-.34-.59-.72-.93-1.06a2.12,2.12,0,0,1,.11-.21l2.67-4.77c.85-1.52,1.74-3,2.56-4.57a4,4,0,0,0,.44-1.22h.11l1.32,0c1.37,0,2.74,0,4.11,0,2.75,0,5.49,0,8.24.05a16.08,16.08,0,0,0,.64,1.54,8.76,8.76,0,0,0,1,2.06.82.82,0,0,0,1.38-.57,6.11,6.11,0,0,0-.82-2.12c-.24-.47-.46-1-.72-1.43l.06-.12c1.5-3.72,3.79-7.12,5.67-10.65.19-.36.39-.7.54-1.06a11,11,0,0,0,1.28,0,12.44,12.44,0,0,0,3.45-.13C146.11,150.11,146.21,148.86,145.39,148.74Zm-29.16,15.93-1.56,2.78q-1.42,2.56-2.87,5.13a91.26,91.26,0,0,1-12.26-.34,70.76,70.76,0,0,0-5.89-10.73c1-1.74,1.92-3.48,2.9-5.21a38.05,38.05,0,0,0,2.61-4.93,91.6,91.6,0,0,0,14.15-.32c.67,1.76,1.33,3.51,2,5.26.37,1,.75,2,1.13,3a11.74,11.74,0,0,1,1,2.71C117.51,162.89,116.66,163.9,116.23,164.67Zm22.17-13.76c-1.81,3.33-3.88,6.57-5.39,10.06-3.06-.05-6.13-.09-9.19-.09-1.33,0-2.67,0-4,0-.23,0-.55,0-.86,0-.08-.27-.18-.55-.3-.85q-1.93-5.11-3.88-10.23a.76.76,0,0,0-.09-.18c1-2.5,2-5,3.21-7.44.31-.62.91-2.24,1.45-2.47a6.73,6.73,0,0,1,1.77-.14c1.94-.11,3.88-.18,5.82-.24l2.54-.07c.51,0,1-.07,1.51-.11a2.16,2.16,0,0,1,1.23.11v0a12.13,12.13,0,0,1,2,2.6c1,1.34,1.89,2.72,2.79,4.1a30,30,0,0,1,2,3.31l.08.17A13.7,13.7,0,0,0,138.4,150.91Z" transform="translate(-29.83 -60.42)"/><path class="cls-38" d="M87.54,140.88c0,1.57.14,3.13.3,4.69.06.56.93.57.88,0,0-.15,0-.29,0-.43-.17-1.66-.28-3.33-.31-5a52,52,0,0,0,0-5.44.2.2,0,0,0-.4,0,18.26,18.26,0,0,0-.44,5.27V140h-.08a17.07,17.07,0,0,0-3.22.74c0-.14,0-.28,0-.42l-.09-2.7a5.44,5.44,0,0,0-.29-2.17c-.11-.24-.43-.14-.51.07a6,6,0,0,0-.09,2.32c0,1,.09,1.95.14,2.93.08,1.75.13,3.51.37,5.25,0,.31.51.21.52-.08.1-1.5,0-3,0-4.54A16,16,0,0,0,87.54,140.88Z" transform="translate(-29.83 -60.42)"/><path class="cls-38" d="M90.22,142.53a3,3,0,0,0,4.45.41c1.67-1.4,1.55-3.86.52-5.61s-2.93-2.85-4.38-1.12a.48.48,0,0,0-.06.51C89.71,138.47,88.94,140.7,90.22,142.53ZM91.3,137a.61.61,0,0,0,.16-.13c1.37-1.64,3,.69,3.41,2a3.07,3.07,0,0,1-1.36,3.77,2.14,2.14,0,0,1-3-1.72A6.92,6.92,0,0,1,91.3,137Z" transform="translate(-29.83 -60.42)"/><path class="cls-38" d="M102.87,132.65a.32.32,0,0,0,.61,0,20.72,20.72,0,0,0,0-5.1v-.36c.64,0,1.3,0,1.94,0a12.48,12.48,0,0,0,1.62,0c0,.33,0,.67.08,1a15.3,15.3,0,0,0,.8,4.58c.14.32.59.13.61-.16a42.27,42.27,0,0,0-.55-4.86c-.14-1.64-.12-3.27-.21-4.91a.37.37,0,0,0-.74,0,23,23,0,0,0,0,3.52,11.59,11.59,0,0,0-1.56,0c-.65,0-1.3,0-2,0a13.58,13.58,0,0,0-.36-3.9.18.18,0,0,0-.35,0,20.06,20.06,0,0,0-.12,5.08A21.67,21.67,0,0,0,102.87,132.65Z" transform="translate(-29.83 -60.42)"/><path class="cls-38" d="M110,130a2.65,2.65,0,0,0,4,.61c2.66-2.48-1.5-8.77-3.59-5.82a.35.35,0,0,0,0,.38A4.18,4.18,0,0,0,110,130Zm.73-4.57a.44.44,0,0,0,.41-.19c1-1.41,2.54,1.43,2.76,2.16.33,1.14,0,2.77-1.35,3s-2.3-1.11-2.4-2.3A5.93,5.93,0,0,1,110.76,125.41Z" transform="translate(-29.83 -60.42)"/><path class="cls-38" d="M93.13,232.13c-1.31-1.43-3.39-2.18-5.15-2.86a26.49,26.49,0,0,0-6.82-1.73.35.35,0,0,0-.1.69c3.58.74,7.41,1.54,10.52,3.59a3.73,3.73,0,0,1,1.65,1.9c.34,1.24-.9,2.1-1.8,2.69a16.64,16.64,0,0,1-4.79,2,61.17,61.17,0,0,1-9.35,1.64Q76,237,74.71,233.87c.71-1.1,1.41-2.2,2.09-3.3a89.21,89.21,0,0,0,6.13-10.86c1.14-2.61,2.52-8.6-1.62-9.44-3.41-.69-7.12,2.14-8.75,4.89-.17.28.25.52.43.25A10.68,10.68,0,0,1,76.58,212c1.37-.77,3.25-1.5,4.83-1.05,2,.56,2.18,3.18,2,4.88a15.82,15.82,0,0,1-1.88,5.28c-2.16,4.12-4.57,8.12-7.11,12l-.36-.84c-.69-1.51-1.39-3.07-2.15-4.6,1.33.05,2.67.11,4,.14.24,0,.23-.34,0-.36-1.43-.16-2.88-.3-4.33-.42a31,31,0,0,0-3-4.79c-.15-.19-.41.05-.32.24.74,1.52,1.61,3,2.4,4.48-2.4-.18-4.8-.29-7.21-.3q2.34-3.17,4.93-6.1a1.37,1.37,0,0,0,.69.28,2.4,2.4,0,0,0,2-1c1-1.1,1.53-3,.24-4.1a2.63,2.63,0,0,0-3.54.33,3,3,0,0,0,.14,3.93c-1.87,2.12-3.66,4.35-5.34,6.65-2,0-4,.09-6,.26q-1.26-3.66-2.18-7.43a50.69,50.69,0,0,1-1.54-7.89c-.07-1,.26-2,1.42-2a3.89,3.89,0,0,1,1.8.6,20.38,20.38,0,0,1,3.65,2.91,44.62,44.62,0,0,1,5.94,7c.18.25.57,0,.41-.24A34.73,34.73,0,0,0,57,210a4.63,4.63,0,0,0-3.2-1c-2.68.47-1.48,4.24-1.17,6a84.81,84.81,0,0,0,2.2,9.06c.31,1,.64,2,1,3l-.53.05A43.17,43.17,0,0,0,45.88,229a16.38,16.38,0,0,0-3.69,1.74,7.52,7.52,0,0,0-2.72,2.65C38.25,236,43,237.5,45,237.68a2,2,0,0,0,.31,2.86,2.37,2.37,0,0,0,3.29-.67,2.72,2.72,0,0,0-.73-3.63,2.14,2.14,0,0,0-1.58-.29,1.35,1.35,0,0,0-.62.34,1.27,1.27,0,0,0-.23.34,1,1,0,0,0,0,.17.33.33,0,0,0-.22,0l-.1.08a7.55,7.55,0,0,1-2.84-.73,4.22,4.22,0,0,1-2-1.58c-.7-1.53,2.53-3.35,3.58-3.9A30.73,30.73,0,0,1,53.7,228q1.19-.17,2.37-.27,1,2.81,2.17,5.54a73.42,73.42,0,0,0-3.5,6.62l-.15.34c-1.69-.16-3.37-.33-5.06-.48-.27,0-.33.42-.07.48,1.58.33,3.18.56,4.79.74a32.61,32.61,0,0,0-2.81,10c-.15,1.62-.63,7.91,2.71,6.72a15.6,15.6,0,0,0,4.45-3.07,39.56,39.56,0,0,0,3.95-4c1-1.21,2-2.46,3-3.73a84.88,84.88,0,0,0,6.89,9c1.8,2.06,4.28,4.45,7,2.37s2.26-5.55,1.75-8.46A2.08,2.08,0,0,0,83,248.1c.32-1.36-.28-3.21-1.72-3.67a1.93,1.93,0,0,0-2.49,2.2s0,0,0,.06a2.88,2.88,0,0,0,1,2.64,2.36,2.36,0,0,0,.72.4.27.27,0,0,0,0,.18c.47,2.69,1,6.39-1.83,8s-5-1.74-6.53-3.55a83.19,83.19,0,0,1-6.08-8.14c1.2-1.58,2.37-3.19,3.52-4.8q3.57-.15,7.13-.55h.11l.9,2.27c.18.45.9.25.72-.19-.28-.72-.57-1.45-.86-2.17A46,46,0,0,0,89,238.48C91.46,237.52,95.92,235.15,93.13,232.13ZM67.94,217.29A1.89,1.89,0,0,1,70.1,216a1.58,1.58,0,0,1,1.15,2.12c-.21.75-2,3.15-2.68,1.49a.39.39,0,0,0-.34-.22A2.77,2.77,0,0,1,67.94,217.29ZM45.56,237.91a.24.24,0,0,0,.07-.18c.37-.21.28-.69.6-.94s1.06,0,1.37.23a1.88,1.88,0,0,1-.59,3.12A1.37,1.37,0,0,1,45.56,237.91Zm34.12,10.2a2.84,2.84,0,0,1-.32-1.33.36.36,0,0,0,.11-.35,1.13,1.13,0,0,1,0-.44s0-.07,0-.11c.23-.86,1.63-.95,2.24-.27a2.71,2.71,0,0,1,.48,2.54C81.71,249.55,80.29,249.22,79.68,248.11ZM56.84,227.7c1.73-.14,3.46-.21,5.19-.22q-1.76,2.46-3.32,5Q57.71,230.14,56.84,227.7Zm-1.43,12.41q1.46-3.08,3.18-6c1,2.27,2.1,4.5,3.29,6.67-2.2-.08-4.38-.25-6.56-.44Zm8.14,8.21a38.79,38.79,0,0,1-7,7.11,22.08,22.08,0,0,1-1.92,1.28c-.51.29-1.27.63-1.77.18a2.46,2.46,0,0,1-.6-1.23,15.1,15.1,0,0,1-.07-5A32.36,32.36,0,0,1,55,241.08c2.44.24,4.9.36,7.32.42q1.37,2.42,2.88,4.76C64.64,247,64.1,247.64,63.55,248.32Zm2.1-2.69q-1.31-2-2.49-4.12c1.85,0,3.71,0,5.56,0Q67.22,243.57,65.65,245.63Zm3.6-4.91q-3.07.14-6.15.08h-.35c-1.35-2.43-2.58-4.93-3.69-7.48,1.19-2,2.48-3.94,3.84-5.83,2.71,0,5.42.1,8.13.21.81,1.59,1.57,3.21,2.3,4.84.2.45.4.9.59,1.36-1.24,1.89-2.52,3.77-3.81,5.62Zm6-.41c-1.69.16-3.39.28-5.09.37q2.11-3,4.12-6.08,1.18,2.78,2.3,5.57Z" transform="translate(-29.83 -60.42)"/><path class="cls-38" d="M70,231.09A3.63,3.63,0,0,0,67.41,229a2.3,2.3,0,0,0-2.26,1l-.09,0c-1.82,1.45-3.26,4.57-1.62,6.68a4,4,0,0,0,5.42.66A5.09,5.09,0,0,0,70,231.09ZM68,237a3.3,3.3,0,0,1-4.15-.94c-1.07-1.65,0-4.1,1.13-5.55a.3.3,0,0,0,.51.16c.74-.79,1.54-1.23,2.59-.62a3.81,3.81,0,0,1,1.61,2.41A4.08,4.08,0,0,1,68,237Z" transform="translate(-29.83 -60.42)"/><path class="cls-38" d="M64.86,232.58a.58.58,0,0,0,.44-.31c0-.1-.09-.22-.19-.18a3.49,3.49,0,0,1-.34.15C64.55,232.29,64.64,232.62,64.86,232.58Z" transform="translate(-29.83 -60.42)"/><path class="cls-38" d="M64.75,233.58a1.9,1.9,0,0,1,.53-.4c.11-.06.07-.27-.07-.25a1,1,0,0,0-.72.39C64.34,233.5,64.58,233.76,64.75,233.58Z" transform="translate(-29.83 -60.42)"/><path class="cls-38" d="M65.67,234a.19.19,0,0,0-.13-.31,1.24,1.24,0,0,0-.71.26,3.66,3.66,0,0,0-.62.48c-.2.19.09.47.3.3a3.74,3.74,0,0,1,.58-.4A1.94,1.94,0,0,0,65.67,234Z" transform="translate(-29.83 -60.42)"/><path class="cls-38" d="M66.22,234.66c.08-.1,0-.28-.14-.23a2.75,2.75,0,0,0-.74.43c-.24.17-.48.32-.71.5s.05.39.22.29.49-.32.73-.48A2.87,2.87,0,0,0,66.22,234.66Z" transform="translate(-29.83 -60.42)"/><path class="cls-38" d="M66.62,235.48a.12.12,0,0,0-.1-.18c-.47,0-.92.49-1.2.81s.11.5.3.3a4.12,4.12,0,0,1,.54-.48A1.32,1.32,0,0,0,66.62,235.48Z" transform="translate(-29.83 -60.42)"/><path class="cls-38" d="M66.86,236.23c-.33-.17-.74.17-1,.38s.07.57.31.4.27-.17.4-.26a.71.71,0,0,0,.34-.27A.19.19,0,0,0,66.86,236.23Z" transform="translate(-29.83 -60.42)"/><path class="cls-38" d="M67.44,236.34a1,1,0,0,0-.45.33.25.25,0,0,0,.35.36c.13-.14.3-.27.33-.46A.19.19,0,0,0,67.44,236.34Z" transform="translate(-29.83 -60.42)"/><path class="cls-38" d="M66.77,216.1a1.45,1.45,0,0,0,.24-.76.17.17,0,0,0-.29-.12,1.47,1.47,0,0,0-.37.71C66.26,216.17,66.65,216.34,66.77,216.1Z" transform="translate(-29.83 -60.42)"/><path class="cls-38" d="M67.49,215c.28,0,.59-.21.52-.51a.19.19,0,0,0-.19-.15,1.87,1.87,0,0,0-.4.13A.27.27,0,0,0,67.49,215Z" transform="translate(-29.83 -60.42)"/><path class="cls-38" d="M69.45,214.5a.2.2,0,0,0,0-.31.57.57,0,0,0-.26-.08l-.29,0a.23.23,0,0,0-.16.39A.55.55,0,0,0,69.45,214.5Z" transform="translate(-29.83 -60.42)"/><path class="cls-38" d="M70.56,214.79a.36.36,0,0,0,.36-.35.37.37,0,0,0-.36-.36c-.12,0-.23,0-.35,0a.29.29,0,0,0-.2.36A.49.49,0,0,0,70.56,214.79Z" transform="translate(-29.83 -60.42)"/><path class="cls-38" d="M44,240.83a.28.28,0,0,0-.51-.22.63.63,0,0,0,.08.76.29.29,0,0,0,.28.07.27.27,0,0,0,.2-.27C44.08,241.05,44,241,44,240.83Z" transform="translate(-29.83 -60.42)"/><path class="cls-38" d="M45.24,242c-.08-.06-.19,0-.26-.11a.26.26,0,0,0-.43.26.43.43,0,0,0,.6.31.28.28,0,0,0,.2-.25v0A.21.21,0,0,0,45.24,242Z" transform="translate(-29.83 -60.42)"/><path class="cls-38" d="M46.52,242.14a.29.29,0,0,0-.29.5.6.6,0,0,0,.41.12.33.33,0,0,0,.29-.22.26.26,0,0,0-.08-.29C46.75,242.15,46.63,242.19,46.52,242.14Z" transform="translate(-29.83 -60.42)"/><path class="cls-38" d="M48.11,241.48a1,1,0,0,0-.18.36.35.35,0,0,0,.58.34.83.83,0,0,0,.22-.34C48.85,241.51,48.34,241.2,48.11,241.48Z" transform="translate(-29.83 -60.42)"/><path class="cls-38" d="M81.49,243a.29.29,0,0,0,.15.56c.21,0,.49-.08.59-.29a.26.26,0,0,0-.09-.34A.69.69,0,0,0,81.49,243Z" transform="translate(-29.83 -60.42)"/><path class="cls-38" d="M83.9,244.29c.18-.37-.47-.54-.72-.56a.26.26,0,0,0-.22.38C83.11,244.36,83.71,244.68,83.9,244.29Z" transform="translate(-29.83 -60.42)"/><path class="cls-38" d="M84.48,245.61a.19.19,0,0,0,.26-.07c.18-.26,0-.54-.25-.69a.26.26,0,0,0-.35.35C84.24,245.35,84.31,245.54,84.48,245.61Z" transform="translate(-29.83 -60.42)"/><path class="cls-38" d="M84.63,246.33a.42.42,0,0,0-.18.57c.12.23.42.13.5-.07s0-.14,0-.21S84.8,246.22,84.63,246.33Z" transform="translate(-29.83 -60.42)"/><path class="cls-38" d="M84.33,247.8a.32.32,0,0,0-.42.11.67.67,0,0,0-.13.41c0,.51.83.36.66-.09v0A.3.3,0,0,0,84.33,247.8Z" transform="translate(-29.83 -60.42)"/><path class="cls-38" d="M98.87,408.4a10.06,10.06,0,0,0-10.23-4.54A10.29,10.29,0,0,0,81.15,410a12.87,12.87,0,0,0-1.53-4.14A17.38,17.38,0,0,0,89.2,387a.39.39,0,0,0-.58-.22,23.93,23.93,0,0,0-10,15.73A96.2,96.2,0,0,0,74.05,391a.39.39,0,0,0-.67,0,16.74,16.74,0,0,1-4.06,5.94.38.38,0,0,0,0,.54,32.55,32.55,0,0,1,10.53,14.36,9,9,0,0,0-3.42-2.91,8.29,8.29,0,0,0-5.27-.45,9.91,9.91,0,0,0-7.41,8.06C62,426.17,70.91,433.8,78.94,437c2.24.9,5,2,7.48,1.61A3.87,3.87,0,0,0,89.58,436a3.52,3.52,0,0,0,2.28.91,3.1,3.1,0,0,0,3.23-2.5c.32-1.12.46-2.26.85-3.37a33.13,33.13,0,0,1,1.61-3.54,36,36,0,0,0,2.68-6.45C101.41,416.81,101.32,412.14,98.87,408.4ZM83.29,395.08a9.78,9.78,0,0,0-.5-1.2,22.94,22.94,0,0,1,5.76-6.07v0c-1.42,2.68-2.68,5.46-4.11,8.14l-.55,1a4.23,4.23,0,0,1-.27-.93Q83.47,395.56,83.29,395.08Zm1.16,1.54c1.43-2.64,3-5.31,4.2-8.05a16.25,16.25,0,0,1-1.26,8.06l-1.49.22a5.45,5.45,0,0,1-1.73.27C84.27,397,84.36,396.79,84.45,396.62Zm-6.07,7.81a.39.39,0,0,0,.77-.1,22.86,22.86,0,0,1,3.44-10.13c.29,1.07.77,2.12,1.08,3.18-.5.9-1,1.8-1.5,2.7a18.22,18.22,0,0,1-2.59,4,.06.06,0,0,0,.07.09c1.19-.57,1.81-2.2,2.43-3.27s1.25-2.22,1.86-3.34q1.64-.29,3.27-.51A16.29,16.29,0,0,1,79,405.26a.4.4,0,0,0-.23.58,12.47,12.47,0,0,1,1.85,5.81.14.14,0,0,0,0,.06,2.56,2.56,0,0,0,0,.27,31.19,31.19,0,0,0-10.25-14.7c1.59-.48,3.09-1,3.8-2.7a4.21,4.21,0,0,0,.26-1A94.15,94.15,0,0,1,78.38,404.43Zm-4.66-12.31c.12.24.23.48.34.73a4.25,4.25,0,0,1-.15,1.12,3.6,3.6,0,0,1-.89,1.55,5,5,0,0,1-2.41,1.19A17.06,17.06,0,0,0,73.72,392.12Zm26.2,26.8c-.72,3.89-2.74,7.13-4.27,10.71a16.94,16.94,0,0,0-.94,2.76c-.23,1-.25,2.26-1,3.05a2.64,2.64,0,0,1-4.23-1.08.39.39,0,0,0-.75.21,2.43,2.43,0,0,1-1.15,2.85,5.08,5.08,0,0,1-3.56.36,26.08,26.08,0,0,1-5.78-1.89A28.58,28.58,0,0,1,68.46,429a15.09,15.09,0,0,1-4.17-10.74,9.59,9.59,0,0,1,5.77-8.65,8.09,8.09,0,0,1,5.63-.19c2.11.74,3.53,2.48,4.8,4.23a.24.24,0,0,0,.36,0,.38.38,0,0,0,.31-.36,9.54,9.54,0,0,1,6.41-8.36,9.23,9.23,0,0,1,10.12,3.15A13.65,13.65,0,0,1,99.92,418.92Z" transform="translate(-29.83 -60.42)"/><path class="cls-38" d="M68,412.12a5.53,5.53,0,0,0,.82-.54c.08-.08,0-.24-.12-.2a4.3,4.3,0,0,0-.85.5C67.7,412,67.85,412.22,68,412.12Z" transform="translate(-29.83 -60.42)"/><path class="cls-38" d="M67.4,413.08a15,15,0,0,1,1.53-.82.14.14,0,0,0-.07-.25,3,3,0,0,0-1.65.76C67,412.91,67.21,413.22,67.4,413.08Z" transform="translate(-29.83 -60.42)"/><path class="cls-38" d="M66.57,414.47c.84-.58,1.79-1,2.6-1.63.11-.08,0-.28-.1-.23a10.19,10.19,0,0,0-2.68,1.57C66.21,414.3,66.38,414.6,66.57,414.47Z" transform="translate(-29.83 -60.42)"/><path class="cls-38" d="M66.07,415.85c1-.68,2-1.21,2.93-1.89.11-.09,0-.29-.1-.24a11.78,11.78,0,0,0-3,1.83C65.71,415.68,65.89,416,66.07,415.85Z" transform="translate(-29.83 -60.42)"/><path class="cls-38" d="M66,416.83c.87-.62,1.88-1.05,2.73-1.66.16-.11.07-.39-.13-.33a11,11,0,0,0-2.79,1.68C65.63,416.65,65.82,417,66,416.83Z" transform="translate(-29.83 -60.42)"/><path class="cls-38" d="M66.28,418.05c.89-.78,1.92-1.31,2.84-2,.12-.1.06-.33-.12-.27a9.11,9.11,0,0,0-3,2C65.77,417.94,66.08,418.23,66.28,418.05Z" transform="translate(-29.83 -60.42)"/><path class="cls-38" d="M66.41,419.24c.8-.68,1.75-1.24,2.5-2,.15-.15,0-.35-.22-.27a11.32,11.32,0,0,0-2.59,1.94C65.89,419.12,66.2,419.42,66.41,419.24Z" transform="translate(-29.83 -60.42)"/><path class="cls-38" d="M66.73,420.54a25,25,0,0,1,2.15-1.85.15.15,0,0,0-.15-.25,6.44,6.44,0,0,0-2.31,1.81C66.24,420.45,66.55,420.74,66.73,420.54Z" transform="translate(-29.83 -60.42)"/><path class="cls-38" d="M66.92,421.76a6.75,6.75,0,0,1,.85-.84c.3-.26.66-.45.94-.73.11-.12,0-.34-.17-.28a5,5,0,0,0-1.93,1.55C66.44,421.67,66.74,422,66.92,421.76Z" transform="translate(-29.83 -60.42)"/><path class="cls-38" d="M69.19,421.25a.13.13,0,0,0-.12-.21,5,5,0,0,0-1.95,1.45.21.21,0,0,0,.3.29,10.34,10.34,0,0,1,.92-.82A4.45,4.45,0,0,0,69.19,421.25Z" transform="translate(-29.83 -60.42)"/><path class="cls-38" d="M68.07,423.67a10.54,10.54,0,0,0,1-1c.08-.11-.06-.25-.17-.22a2.84,2.84,0,0,0-1.17.89C67.56,423.57,67.88,423.87,68.07,423.67Z" transform="translate(-29.83 -60.42)"/><path class="cls-38" d="M68.5,424.75l.62-.51a2.52,2.52,0,0,0,.54-.49c.09-.14-.09-.25-.21-.2a2.8,2.8,0,0,0-.59.45l-.61.51C68.08,424.66,68.33,424.88,68.5,424.75Z" transform="translate(-29.83 -60.42)"/><path class="cls-38" d="M69.74,424.9c.06-.07,0-.21-.09-.2a1.9,1.9,0,0,0-1.12.77c-.12.15.08.36.22.21a4.15,4.15,0,0,1,.51-.43A2.47,2.47,0,0,0,69.74,424.9Z" transform="translate(-29.83 -60.42)"/><path class="cls-38" d="M69.91,425.49a3,3,0,0,0-.85.58c-.2.16,0,.5.21.34a3.06,3.06,0,0,0,.8-.72A.14.14,0,0,0,69.91,425.49Z" transform="translate(-29.83 -60.42)"/><path class="cls-38" d="M69.86,427.28a2.3,2.3,0,0,0,.53-.5.15.15,0,0,0-.16-.21,2.46,2.46,0,0,0-.64.38A.21.21,0,1,0,69.86,427.28Z" transform="translate(-29.83 -60.42)"/><path class="cls-38" d="M71.14,427.4a.19.19,0,0,0-.21-.26,1.69,1.69,0,0,0-.51.34l-.49.41c-.23.19.11.51.34.32l.47-.39A1.45,1.45,0,0,0,71.14,427.4Z" transform="translate(-29.83 -60.42)"/><path class="cls-38" d="M71.7,428.53c0-.08-.06-.15-.14-.13a2,2,0,0,0-.78.54c-.2.18.1.47.3.29A1.9,1.9,0,0,0,71.7,428.53Z" transform="translate(-29.83 -60.42)"/><path class="cls-38" d="M72.43,429.17a1.88,1.88,0,0,0-.69.35c-.23.14,0,.51.22.36a1.8,1.8,0,0,0,.62-.46A.17.17,0,0,0,72.43,429.17Z" transform="translate(-29.83 -60.42)"/><path class="cls-38" d="M73.18,429.81a2,2,0,0,0-.66.47c-.23.2.11.53.34.33a1.79,1.79,0,0,0,.53-.53A.19.19,0,0,0,73.18,429.81Z" transform="translate(-29.83 -60.42)"/><path class="cls-38" d="M74.16,430.43a.13.13,0,0,0-.09-.17c-.24,0-.42.11-.62.22s0,.52.23.38S74.08,430.65,74.16,430.43Z" transform="translate(-29.83 -60.42)"/><path class="cls-38" d="M74.46,431a1,1,0,0,0-.59.41c-.15.19.12.46.28.27a6.2,6.2,0,0,0,.44-.45A.15.15,0,0,0,74.46,431Z" transform="translate(-29.83 -60.42)"/><path class="cls-38" d="M75.05,431.44c-.25,0-.49.21-.66.38s.12.48.31.29.37-.25.5-.43A.17.17,0,0,0,75.05,431.44Z" transform="translate(-29.83 -60.42)"/><path class="cls-38" d="M75.85,432.19c-.3-.07-.58.22-.75.44s.13.53.32.31.43-.3.53-.51A.16.16,0,0,0,75.85,432.19Z" transform="translate(-29.83 -60.42)"/><path class="cls-38" d="M76.32,432.92a.85.85,0,0,0-.34.2c-.22.17,0,.54.22.37a1,1,0,0,0,.33-.31A.19.19,0,0,0,76.32,432.92Z" transform="translate(-29.83 -60.42)"/><path class="cls-38" d="M77.38,433.51c-.12-.27-.51,0-.68,0s-.06.53.19.43S77.5,433.78,77.38,433.51Z" transform="translate(-29.83 -60.42)"/><path class="cls-38" d="M77.83,433.93a2.67,2.67,0,0,1-.26.09c-.27,0-.26.46,0,.43s.4-.1.45-.33A.16.16,0,0,0,77.83,433.93Z" transform="translate(-29.83 -60.42)"/><path class="cls-38" d="M78.45,434.18a.28.28,0,0,0,.15.53c.19,0,.38-.08.49-.27a.23.23,0,0,0-.09-.29A.66.66,0,0,0,78.45,434.18Z" transform="translate(-29.83 -60.42)"/><path class="cls-38" d="M59.79,364.61a44.71,44.71,0,0,0-4.37-8.51c-.62-.94-1.66-2-2.9-1.5s-1.2,1.75-1,2.76c.57,2.93,2.29,5.66,3.91,8.12,1.32,2,3.19,5.33,6.09,4.78a2.53,2.53,0,0,0,2-2.11,6.19,6.19,0,0,0-.68-3.29,70.79,70.79,0,0,0-4.36-8.6c-.83-1.4-1.72-2.76-2.65-4.1a19.87,19.87,0,0,0-2.82-3.45c-1.73-1.54-4.84-2.27-6.4-.06s0,5.52.93,7.7A44.75,44.75,0,0,0,53,365.6c.41.54,1.28-.07.87-.61a42.1,42.1,0,0,1-4.23-6.71c-.57-1.12-1.09-2.28-1.56-3.45a13.79,13.79,0,0,1-1-3.06,3.29,3.29,0,0,1,.49-2.65,2.83,2.83,0,0,1,2.93-.67,6.27,6.27,0,0,1,2.91,2.25c.81,1,1.55,2.06,2.27,3.13a66.07,66.07,0,0,1,4,6.77c.63,1.2,1.21,2.42,1.76,3.65a10.23,10.23,0,0,1,1.06,3.08,1.66,1.66,0,0,1-1.63,2c-1.29,0-2.25-1-3-1.93a41.37,41.37,0,0,1-4.24-6.7,12.22,12.22,0,0,1-1.34-3.83c-.08-.63,0-1.47.83-1.41s1.19.79,1.56,1.35a64.42,64.42,0,0,1,4.45,8c.15.34.69.16.55-.2Z" transform="translate(-29.83 -60.42)"/><path class="cls-38" d="M43.88,264A11.36,11.36,0,0,0,40,269.19c-.1.34.35.46.53.22.66-.86,1.18-1.81,1.85-2.66a26.83,26.83,0,0,1,2-2.22C44.69,264.2,44.22,263.77,43.88,264Z" transform="translate(-29.83 -60.42)"/><path class="cls-38" d="M36.44,276.89a34.42,34.42,0,0,0-2,6.15c-.06.3.36.52.52.22a35.29,35.29,0,0,0,2.28-6.16C37.35,276.61,36.62,276.43,36.44,276.89Z" transform="translate(-29.83 -60.42)"/><path class="cls-38" d="M32.74,291.28c-1.59,2.4-2.54,5.72-1.67,8.57a.34.34,0,0,0,.67-.09,25.37,25.37,0,0,1,1.52-8.27C33.39,291.19,32.91,291,32.74,291.28Z" transform="translate(-29.83 -60.42)"/><path class="cls-38" d="M31.09,305.14c-1.15,2.18-1.91,5.28-.48,7.51.18.27.7.2.67-.18-.23-2.49-.7-4.57.44-7C31.92,305.09,31.31,304.71,31.09,305.14Z" transform="translate(-29.83 -60.42)"/><path class="cls-38" d="M32.83,325.72c-.53-2.24-1.21-4.19-1-6.55,0-.54-.77-.52-.83,0-.27,2.23-.17,4.93,1.16,6.85A.39.39,0,0,0,32.83,325.72Z" transform="translate(-29.83 -60.42)"/><path class="cls-38" d="M37.8,336.11c-.41-.59-1-1-1.39-1.62a5.43,5.43,0,0,1-.9-2.11c-.08-.4-.78-.31-.73.1.17,1.55.94,3.69,2.64,4.13A.34.34,0,0,0,37.8,336.11Z" transform="translate(-29.83 -60.42)"/><path class="cls-38" d="M78.56,371.06c-.42-.15-.86-.21-1.29-.38a4.28,4.28,0,0,1-1.28-.77c-.35-.31-.85.18-.52.51a3.49,3.49,0,0,0,3.09,1.13A.26.26,0,0,0,78.56,371.06Z" transform="translate(-29.83 -60.42)"/><path class="cls-38" d="M91.88,377.05c-.41-.16-.89-.15-1.32-.29a4.22,4.22,0,0,1-1.33-.69.33.33,0,0,0-.47.46c.72.82,2.09,1.63,3.2,1.11C92.24,377.51,92.12,377.14,91.88,377.05Z" transform="translate(-29.83 -60.42)"/><path class="cls-38" d="M102.07,384c-.48-1.4-2.2-2.19-3.53-2.47a.33.33,0,0,0-.17.63,7.19,7.19,0,0,1,1.79,1c.52.37.93.88,1.45,1.23A.32.32,0,0,0,102.07,384Z" transform="translate(-29.83 -60.42)"/><path class="cls-38" d="M109.26,391.73a13.3,13.3,0,0,0-2.22-3.42c-.25-.35-.82,0-.59.35a13.24,13.24,0,0,0,2.27,3.39C109,392.24,109.36,392.06,109.26,391.73Z" transform="translate(-29.83 -60.42)"/><path class="cls-38" d="M111,396.23a.33.33,0,0,0-.66,0,11.14,11.14,0,0,0,0,3.41.33.33,0,0,0,.64,0A11.14,11.14,0,0,0,111,396.23Z" transform="translate(-29.83 -60.42)"/><path class="cls-38" d="M110.4,404.4a10.38,10.38,0,0,0-1.16,3.47c0,.32.41.39.57.16a10.65,10.65,0,0,0,1.13-3.4C111,404.32,110.55,404.08,110.4,404.4Z" transform="translate(-29.83 -60.42)"/><path class="cls-38" d="M108.33,409.72a1.22,1.22,0,0,0-.84,1.71.5.5,0,0,0,.91-.39c-.07-.18-.12-.49.13-.59A.38.38,0,0,0,108.33,409.72Z" transform="translate(-29.83 -60.42)"/><path class="cls-38" d="M106.76,228.42a13.64,13.64,0,0,0-4,.67c-.36.09-.3.7.09.66a13.77,13.77,0,0,0,3.94-.71A.32.32,0,0,0,106.76,228.42Z" transform="translate(-29.83 -60.42)"/><path class="cls-38" d="M115.46,224.61c-.6.28-1.12.74-1.73,1a7.47,7.47,0,0,1-2.06.64c-.39.07-.3.75.09.7,1.41-.18,3.28-.69,4.15-1.9C116.12,224.77,115.73,224.49,115.46,224.61Z" transform="translate(-29.83 -60.42)"/><path class="cls-38" d="M123.67,218.81a.29.29,0,0,0-.53-.14c-.36.57-.55,1.23-1,1.79a4.88,4.88,0,0,1-1.68,1.48c-.36.2,0,.7.32.55C122.14,221.92,123.82,220.41,123.67,218.81Z" transform="translate(-29.83 -60.42)"/><path class="cls-38" d="M128.81,209.27a24.27,24.27,0,0,1-2.42,4.9c-.22.3.28.69.52.4a9.86,9.86,0,0,0,2.45-5.15A.3.3,0,0,0,128.81,209.27Z" transform="translate(-29.83 -60.42)"/><path class="cls-38" d="M132.47,198.66a12.25,12.25,0,0,0-1.17,4,.35.35,0,0,0,.67.18,12.16,12.16,0,0,0,1.19-4A.37.37,0,0,0,132.47,198.66Z" transform="translate(-29.83 -60.42)"/><path class="cls-38" d="M134.33,188.33c0-.3-.48-.51-.63-.17a13.33,13.33,0,0,0-.77,4c-.05.43.65.51.75.1A13.14,13.14,0,0,0,134.33,188.33Z" transform="translate(-29.83 -60.42)"/><path class="cls-38" d="M133.82,181.06a12.28,12.28,0,0,0,.4-1.67.4.4,0,0,0-.68-.28c-1,1-.85,3.06-.52,4.32a.43.43,0,0,0,.83-.23A5.32,5.32,0,0,1,133.82,181.06Z" transform="translate(-29.83 -60.42)"/><path class="cls-38" d="M111.63,104.48a17,17,0,0,0-1.38,5,.28.28,0,0,0,.53.15,16.93,16.93,0,0,0,1.42-5A.31.31,0,0,0,111.63,104.48Z" transform="translate(-29.83 -60.42)"/><path class="cls-38" d="M117.61,94.38a9.85,9.85,0,0,0-1.48,1.8c-.49.69-1,1.38-1.41,2.1-.17.28.24.61.47.36.56-.63,1.09-1.27,1.61-1.94a9.7,9.7,0,0,0,1.32-1.93A.33.33,0,0,0,117.61,94.38Z" transform="translate(-29.83 -60.42)"/><path class="cls-38" d="M127.12,87.69a19.48,19.48,0,0,0-3.88,2.89c-.23.2.06.57.31.42a20.14,20.14,0,0,0,3.93-2.83A.3.3,0,0,0,127.12,87.69Z" transform="translate(-29.83 -60.42)"/><path class="cls-38" d="M134.79,85.67a.31.31,0,0,0-.3-.23c-.39,0-.61.4-.79.71s-.4.74-.59,1.1.26.68.5.39.52-.63.77-1S134.92,86,134.79,85.67Z" transform="translate(-29.83 -60.42)"/><path class="cls-39" d="M428.12,146.29a5.34,5.34,0,0,0-.17-1.2.24.24,0,0,0-.22-.21,37.8,37.8,0,0,0-11.07,1.73c-.12,0-.15.16-.15.26.07,1.57,1.51,1.55,2.67,1.22l2.25,15.18,1.14,7.64c.18,1.27.37,2.55.56,3.82a18.39,18.39,0,0,0,.55,2.85c.43,1.43,1.37,2.94,3,3a3.79,3.79,0,0,0,3.4-3c.54-2.06,0-4.4-.23-6.47-.3-2.5-.65-5-1-7.48-.87-5.58-1.93-11.16-3.2-16.66A8.6,8.6,0,0,0,428.12,146.29Zm-4.16.91,1.17-.2c0,.06,0,.11,0,.16a2,2,0,0,0-.35.11.11.11,0,0,0,0,.21,2.54,2.54,0,0,0,.39,0,217.17,217.17,0,0,1,4.48,26.68c.2,2,.19,4.54-1.87,5.59s-3.32-.92-3.77-2.63a59.92,59.92,0,0,1-1-6.28L422,163.72q-1.12-7.62-2.26-15.23a6,6,0,0,0,1.33-.32c.11,0,0-.19-.06-.19a6.54,6.54,0,0,0-1.31.23l-.05-.32a4.94,4.94,0,0,0,.94-.22c.09,0,.06-.17,0-.18a7.75,7.75,0,0,0-1.4.18c-.85.21-2,.36-2.16-.65a37.8,37.8,0,0,1,10.45-1.63c0,.26.07.51.11.77-.75.24-3.34.66-3.69.85A.1.1,0,0,0,424,147.2Z" transform="translate(-29.83 -60.42)"/><path class="cls-39" d="M421.79,155.35a.25.25,0,0,0-.4.23c.54,3.57,1.17,7.12,1.75,10.68.29,1.73.57,3.47.86,5.21s.43,3.38.84,5a3.21,3.21,0,0,0,1.78,2.29,1.82,1.82,0,0,0,2.29-1.48,5.08,5.08,0,0,0,0-1.74c-.08-.91-.17-1.83-.27-2.74-.18-1.76-.39-3.52-.61-5.28q-.75-6.06-1.81-12.07a.26.26,0,0,0-.29-.22A8.74,8.74,0,0,1,421.79,155.35Zm6.54,19.11a13.12,13.12,0,0,1,.15,2.17c-.05.81-.52,1.85-1.51,1.69-1.27-.21-1.62-1.88-1.79-2.9q-.78-4.69-1.54-9.37c-.55-3.4-1.07-6.81-1.68-10.2a8.49,8.49,0,0,0,3.85,0Q427.42,165.09,428.33,174.46Z" transform="translate(-29.83 -60.42)"/><path class="cls-39" d="M422.59,152.18a1.27,1.27,0,0,0,.58,1.47,1,1,0,0,0,1.35-.66,1.48,1.48,0,0,0-.76-1.73A.89.89,0,0,0,422.59,152.18Zm1.61.75a.76.76,0,0,1-.92.43c-.36-.14-.48-.6-.48-1l0,0c.2-.36.32-1,.88-.68A1.14,1.14,0,0,1,424.2,152.93Z" transform="translate(-29.83 -60.42)"/><path class="cls-39" d="M423.19,150.08a.94.94,0,0,0-.52-1.06c-.32-.15-.82,0-.79.42a.79.79,0,0,0,.35.95A.64.64,0,0,0,423.19,150.08Zm-1.1-.45s.07,0,.08-.08c.18-.62.93.08.7.51-.12.21-.41.16-.57,0A.6.6,0,0,1,422.09,149.63Z" transform="translate(-29.83 -60.42)"/><path class="cls-39" d="M424.19,158.14a.54.54,0,0,0,.58-.52.53.53,0,0,0-.46-.58.52.52,0,0,0-.57.39.1.1,0,0,0-.05.06A.54.54,0,0,0,424.19,158.14Zm.28-.57a.25.25,0,0,1-.23.26c-.17,0-.26-.17-.29-.32,0,0,0,0,0,0C424.06,157.27,424.48,157.25,424.47,157.57Z" transform="translate(-29.83 -60.42)"/><path class="cls-39" d="M425.16,160a1.07,1.07,0,0,0-1.12,1,1,1,0,0,0,1,1.1,1,1,0,0,0,1-1,1.11,1.11,0,0,0-.76-1.08A.12.12,0,0,0,425.16,160Zm-.2,1.78a.75.75,0,0,1-.61-.8.84.84,0,0,1,.82-.68h0C426,160.52,425.91,161.87,425,161.75Z" transform="translate(-29.83 -60.42)"/><path class="cls-39" d="M424.79,163.85a.59.59,0,0,0-.4-.78.54.54,0,0,0-.39.08.3.3,0,0,0-.12.31.49.49,0,0,0,.09.64A.55.55,0,0,0,424.79,163.85Zm-.62,0a.21.21,0,0,1-.07-.3l0,0c.06-.08.07-.15.19-.13s.21.2.17.32A.22.22,0,0,1,424.17,163.85Z" transform="translate(-29.83 -60.42)"/><path class="cls-39" d="M426.13,165.54c-.41,0-1,.38-.83.85h0a.89.89,0,0,0,.53,1.14c.57.19,1.07-.37,1.11-.9A1,1,0,0,0,426.13,165.54Zm.5,1c0,.36-.3.86-.72.7s-.42-.67-.31-1a.5.5,0,0,1,.5-.34C426.44,165.87,426.63,166.24,426.63,166.54Z" transform="translate(-29.83 -60.42)"/><path class="cls-39" d="M425.7,170a.43.43,0,0,0-.26.27h0s-.06,0-.06.08a.9.9,0,0,0,.09.51.51.51,0,0,0,.37.21c.34,0,.51-.41.46-.7A.45.45,0,0,0,425.7,170Zm.12.76c-.1,0-.15-.09-.19-.18a.15.15,0,0,0,.06,0c.06-.09,0-.18.11-.24s.18,0,.2.14S426,170.78,425.82,170.77Z" transform="translate(-29.83 -60.42)"/><path class="cls-39" d="M415.65,235.31c1.37-1.26,2.75-2.51,4.07-3.82a.45.45,0,0,0,.11,0,10.66,10.66,0,0,0,7.11-2.62,39.59,39.59,0,0,0,3.24-3c1-1,1.78-1.93,1.42-3.37s-1.05-2.62-.78-4.24a6.11,6.11,0,0,1,2.34-3.89,6,6,0,0,1,8.2,1.63.47.47,0,0,0,.65.05l1.84-1.59c.2-.18.57-.66.84-.73s.53.08.85.16a5.68,5.68,0,0,0,3-.18c2.49-.82,4.11-3,5.57-5a.48.48,0,0,0,0-.56l-6.63-9.76a.47.47,0,0,0-.65,0l-3.35,2.3c-1.13.77-2.39,1.49-3.44,2.37-.62.52-1.21,1.55-.83,2.23L424.12,216c-2.5,1.78-5.12,3.46-7.53,5.38-1.21,1-2.2,2.76-1.14,4L410,229.29a.45.45,0,0,0,0,.72,22.7,22.7,0,0,1,5,5.25A.44.44,0,0,0,415.65,235.31Zm.82-9.47a.47.47,0,0,0,0-.74c-2.33-1.68,3.28-4.81,4.36-5.58l6.54-4.66,12.91-9.2,0,0a49,49,0,0,0,4.84,6.41c.13.14.4,0,.29-.19a48.49,48.49,0,0,0-4.94-6.88h0a.7.7,0,0,0-.4-.5h0a3.68,3.68,0,0,1,.8-.84c.76,1.12,1.63,2.17,2.43,3.26s1.68,2.41,2.64,3.51a.25.25,0,0,0,.41-.27,26.9,26.9,0,0,0-2.36-3.54,38.6,38.6,0,0,0-2.68-3.3h0l2.05-1.41,3.67-2.52,6.18,9.11c-1.9,2.6-4.77,5.94-8.32,4.25a.46.46,0,0,0-.45.09l-2.64,2.28a7,7,0,0,0-6.74-2.45,6.65,6.65,0,0,0-5.07,5.19,6.58,6.58,0,0,0,.2,3.6c.38,1.07.91,1.94.13,3a15.2,15.2,0,0,1-2,2c-2.35,2.25-5,4.31-8.45,4.18a.41.41,0,0,0-.41.23c-.32.25-.63.51-.94.78-1.41-1.42-2.81-2.82-4.18-4.28Zm-4.12,2.93A14.6,14.6,0,0,0,416,232c.19.12.47-.13.28-.31-1.13-1.13-2.4-2.14-3.59-3.22l1.24-.88a14.72,14.72,0,0,0,4.3,4.24c-.94.8-1.87,1.63-2.8,2.45a21.63,21.63,0,0,0-4.35-4.66Z" transform="translate(-29.83 -60.42)"/><path class="cls-39" d="M434.63,214.73c-2.06,1-4.15,3.27-3.2,5.7s3.86,3,6.19,2.54a.36.36,0,0,0,.3,0l.12-.08.1,0a.23.23,0,0,0,.14-.13c2-1.34,3.45-3.63,2.38-6.09S436.92,213.65,434.63,214.73Zm2.84,7.5a.3.3,0,0,0-.12.16c-1.69,0-3.47-.06-4.64-1.47-1.64-2,.18-4.26,2-5.23s4.09-.92,5.08,1.17C440.87,219.19,439.22,220.93,437.47,222.23Z" transform="translate(-29.83 -60.42)"/><path class="cls-39" d="M440.91,247.66a38.7,38.7,0,0,0,1.91-26.92c-.12-.39-.77-.55-.89-.06a5.31,5.31,0,0,1-6.67,3.71.45.45,0,0,0-.58.29.36.36,0,0,0-.46.46c2.32,6.79-2.33,12.71-6.61,17.51a14.37,14.37,0,0,0-21.15-.39.47.47,0,0,0,.15.78,220.48,220.48,0,0,0,38.68,14.34.47.47,0,0,0,.59-.29A7.83,7.83,0,0,0,440.91,247.66Zm-33.37-5.19a13.51,13.51,0,0,1,10-3.73,6.18,6.18,0,0,0-3.59,3.42.23.23,0,0,0,.4.2,10.72,10.72,0,0,1,2.13-2.38,8.14,8.14,0,0,1,2.27-1.12,13.35,13.35,0,0,1,8.52,4.78.46.46,0,0,0,.72,0c4-4.47,9-10.55,7.48-16.91a5.93,5.93,0,0,0,5.3-.44c.19-.13,0-.4-.22-.32a7.75,7.75,0,0,1-5.17.41c-.1-.35-.21-.7-.35-1.06a6.26,6.26,0,0,0,7.26-3,37.85,37.85,0,0,1-2.44,25.5.47.47,0,0,0,.29.59,6.92,6.92,0,0,1,5.1,6.43c-.76-.28-1.62-.32-2.41-.55s-1.73-.57-2.59-.9c-.27-.1-.49.32-.23.46a14.62,14.62,0,0,0,2.8,1.16,7,7,0,0,0,2.42.46,5.92,5.92,0,0,1-.12.93A220.81,220.81,0,0,1,407.54,242.47Z" transform="translate(-29.83 -60.42)"/><path class="cls-39" d="M438.54,218.76a2.39,2.39,0,0,1-1.81,2.12,2.47,2.47,0,0,1-2.53-1.3c-.61-1.19.45-2.43,1.46-2.91a2.29,2.29,0,0,1,2.94.59.09.09,0,0,0,.16-.08c-.17-1.32-2-1.35-3-1-1.14.42-2.41,1.7-2.25,3a3,3,0,0,0,3,2.24,2.65,2.65,0,0,0,2.51-2.59C439,218.61,438.6,218.47,438.54,218.76Z" transform="translate(-29.83 -60.42)"/><path class="cls-39" d="M421,229.29c1.5,0,2.85-1.19,4-2,.15-.1,0-.34-.17-.26-.83.4-1.51,1-2.33,1.45-1.43.72-3.23.5-3.62-1.29a.13.13,0,0,0-.26.05A2.36,2.36,0,0,0,421,229.29Z" transform="translate(-29.83 -60.42)"/><path class="cls-39" d="M426.76,226c.32-.23.63-.47.94-.71a2.85,2.85,0,0,0,.78-.73.19.19,0,0,0-.24-.28,3.14,3.14,0,0,0-.89.61l-.88.76A.23.23,0,0,0,426.76,226Z" transform="translate(-29.83 -60.42)"/><path class="cls-39" d="M442.47,213.8a10.68,10.68,0,0,0,1.45-1.71.17.17,0,0,0-.25-.23,11.34,11.34,0,0,0-1.52,1.72C442,213.77,442.31,214,442.47,213.8Z" transform="translate(-29.83 -60.42)"/><path class="cls-39" d="M414.18,243.42a.2.2,0,0,0-.3-.27,1.11,1.11,0,0,0-.35,1.26c.13.3.52.11.5-.17A1.37,1.37,0,0,1,414.18,243.42Z" transform="translate(-29.83 -60.42)"/><path class="cls-39" d="M437,252.43c-2.91-1.26-5.9-2.35-8.88-3.46s-5.92-2.33-8.95-3.26a.19.19,0,0,0-.12.36c2.89,1.3,5.91,2.34,8.88,3.46s5.93,2.28,8.95,3.26A.19.19,0,0,0,437,252.43Z" transform="translate(-29.83 -60.42)"/><path class="cls-39" d="M428.2,72.31a.27.27,0,0,0-.38,0l-.34.31a.1.1,0,0,0-.05,0c-.21.18-.42.35-.61.54l0,0-1-1.27a.25.25,0,0,0-.25-.07,15.24,15.24,0,0,0-12.06,12.91,1.4,1.4,0,0,0-.79.08,16.5,16.5,0,0,0-2.18.87,20.48,20.48,0,0,0-4.15,2.69,51.68,51.68,0,0,0-7.13,7.65.27.27,0,0,0,0,.37l1.05,1-.06,0c-.28.29-.54.61-.8.92-.09,0-.18.07-.14.16l-.26.29a.25.25,0,0,0,0,.33c6.41,6.19,12.93,12.23,18.26,19.42.15.21.43,0,.45-.18a10.42,10.42,0,0,1,1-2.81,21.83,21.83,0,0,1,2.95-4.52,14.64,14.64,0,0,1,4.83-4,9.58,9.58,0,0,1,5.87-.76.26.26,0,0,0,.33-.31c-.5-2.76,1.11-5.42,2.75-7.48a39.83,39.83,0,0,1,6.29-6.09c.91-.74,1.84-1.45,2.77-2.17a.27.27,0,0,0,0-.37C438.27,84.84,433.94,77.93,428.2,72.31Zm-6.39,1.45a13.32,13.32,0,0,1,3.29-1.23c.44-.1.43,0,.71.33s.49.62.74.92c.52.66,1,1.3,1.57,2q3,3.72,6.24,7.31c1.22,1.38,2.47,2.74,3.73,4.09a19.44,19.44,0,0,0,1.49,1.53c-3-.21-5.77,2.37-7.47,4.53-2,2.57-3.45,5.83-3.06,9.12-1.15-1.29-2.37-2.52-3.54-3.79-1.34-1.46-2.68-2.93-4-4.41-2.59-2.91-5.1-5.87-7.56-8.89A14.59,14.59,0,0,1,421.81,73.76Zm-5.22,40.46a8.93,8.93,0,0,1,0-4.3A10,10,0,0,1,419,105.7c2.43-2.55,6.41-4.37,9.67-2.49a14.9,14.9,0,0,0-7.89,2.28,9.16,9.16,0,0,0-4.11,7.6.05.05,0,0,0,.1,0,15.57,15.57,0,0,1,1.18-4.23,7.55,7.55,0,0,1,3.15-3.3,14.28,14.28,0,0,1,7.24-2.08,13.28,13.28,0,0,0-7.43,3,12.73,12.73,0,0,0-4.16,7.92ZM440.64,89.4a20.06,20.06,0,0,0-11,13.24c-.51-3.18.8-6.34,2.71-8.87S437.29,88.45,440.64,89.4Zm-35,.34A22.92,22.92,0,0,1,409.25,87a17.38,17.38,0,0,1,2-1c.42-.19,1.83-1,2.24-.55l0,0q3.74,4.58,7.65,9c2.52,2.83,5.05,5.75,7.84,8.34-3.42-2-7.68-.2-10.27,2.47-1.94,2-3.55,5.23-2.87,8.08a192.31,192.31,0,0,0-16.11-17.06A58.06,58.06,0,0,1,405.67,89.74Zm-5.13,8a179.72,179.72,0,0,1,16,17.23.2.2,0,0,0,.27.07.19.19,0,0,0,.29-.1,13.09,13.09,0,0,1,4.11-8,12.84,12.84,0,0,1,8.45-3,.27.27,0,0,0,.26-.19,19.5,19.5,0,0,1,11.66-14.21.27.27,0,0,0-.05-.49,3.92,3.92,0,0,1-2.12-1.33c-.68-.71-1.34-1.43-2-2.15q-2-2.17-4-4.41-3.24-3.7-6.32-7.56l.08,0c.17-.17.35-.33.53-.48q3.67,4.35,7.43,8.62c2.52,2.85,4.89,6,7.8,8.43a23.91,23.91,0,0,0-8.29,7.06c-1.68,2.29-3.74,5.6-2.59,8.53-3.11-1.35-6.49,0-8.93,2.09a23.19,23.19,0,0,0-3.82,4.22,10.78,10.78,0,0,0-2.11,4.67q-4.05-4.84-8.48-9.34c-2.9-2.95-5.86-5.92-9-8.65.24-.31.48-.62.74-.91Zm26.09,8.76a14.43,14.43,0,0,0-5.17,4.07,22,22,0,0,0-3.18,4.8,12.88,12.88,0,0,0-1,2.46c-5.21-6.93-11.52-12.87-17.81-18.8l.09-.11c2.92,2.94,6,5.7,9,8.64a121.3,121.3,0,0,1,8.66,9.48c.09.11.25,0,.16-.15l0,0a16.07,16.07,0,0,1,2.06-4.52,23.08,23.08,0,0,1,3.46-3.92c2.11-1.91,5-3.4,7.87-2.75A10.68,10.68,0,0,0,426.63,106.51Zm11.66-11.72a22.24,22.24,0,0,0-5.51,7.13,8.1,8.1,0,0,0-.68,3c-.46-2.87,1.32-5.71,3-7.92a23.57,23.57,0,0,1,8-6.68.09.09,0,0,0,.06-.06c.12,0,.27-.11.15-.21a32.28,32.28,0,0,1-4-4.07c-1.31-1.5-2.62-3-3.91-4.52q-3.71-4.31-7.5-8.54l.13-.11c5.58,5.52,9.85,12.23,15.91,17.27C442,91.63,440.07,93.12,438.29,94.79Z" transform="translate(-29.83 -60.42)"/><path class="cls-39" d="M409.84,105.86a.13.13,0,0,0,.19-.18c-1.38-1.63-2.92-3.14-4.4-4.67s-2.89-3.18-4.48-4.59c-.11-.1-.25,0-.16.16,1.33,1.65,2.91,3.14,4.38,4.68S408.27,104.41,409.84,105.86Z" transform="translate(-29.83 -60.42)"/><path class="cls-39" d="M414.12,108.41c-1.6-1.61-3.28-3.14-4.85-4.78s-3-3.4-4.57-5c-.07-.08-.21,0-.15.1a50.45,50.45,0,0,0,4.38,5.09,54.31,54.31,0,0,0,5,4.83C414.06,108.71,414.25,108.54,414.12,108.41Z" transform="translate(-29.83 -60.42)"/><path class="cls-39" d="M435.06,84.69c-1.45-1.64-3-3.16-4.46-4.83s-2.72-3.42-4.08-5.14c-.09-.12-.29,0-.21.16A44.53,44.53,0,0,0,430.23,80a37.26,37.26,0,0,0,4.67,4.81C435,84.93,435.16,84.8,435.06,84.69Z" transform="translate(-29.83 -60.42)"/><path class="cls-39" d="M418.57,106.8a18.93,18.93,0,0,1,2.06-1.84,11,11,0,0,1,2.28-1.2,11.43,11.43,0,0,1,2.5-.62,15.08,15.08,0,0,1,2.77,0c.11,0,.13-.16,0-.19a9.56,9.56,0,0,0-5.36.58,9.11,9.11,0,0,0-4.35,3.17S418.53,106.84,418.57,106.8Z" transform="translate(-29.83 -60.42)"/><path class="cls-39" d="M435.77,91.2A17,17,0,0,0,429.62,102c0,.08.12.1.14,0a21.42,21.42,0,0,1,2.1-5.9,21.09,21.09,0,0,1,4-4.82C435.93,91.27,435.85,91.14,435.77,91.2Z" transform="translate(-29.83 -60.42)"/><path class="cls-39" d="M439.08,89.7a11.34,11.34,0,0,0-5,4c0,.06.06.14.1.08a14.63,14.63,0,0,1,2.17-2.21,19.89,19.89,0,0,1,2.81-1.74C439.22,89.82,439.17,89.67,439.08,89.7Z" transform="translate(-29.83 -60.42)"/><path class="cls-39" d="M415.22,111.15a25.07,25.07,0,0,0-3.56-3.27s-.09,0-.05.07c1.19,1.08,2.33,2.2,3.45,3.35A.11.11,0,0,0,415.22,111.15Z" transform="translate(-29.83 -60.42)"/><path class="cls-39" d="M425.61,74.71a9.43,9.43,0,0,0-1-1.21c-.05,0-.14,0-.1.07a8.81,8.81,0,0,0,1,1.22A.07.07,0,0,0,425.61,74.71Z" transform="translate(-29.83 -60.42)"/><path class="cls-39" d="M386.53,156.81c-.4-5-.87-8.26-2.94-12.92a25.45,25.45,0,0,0-10.95-12A24,24,0,0,0,360.39,129h0a26.82,26.82,0,0,0-18.08,7.86c-7.64,7.63-10.37,19.56-6.23,29.61A25.45,25.45,0,0,0,377.91,175,28.3,28.3,0,0,0,386.53,156.81Zm-4.4-14c2.3,4.3,3,9.09,3.6,13.87a18.36,18.36,0,0,0-4.75-5.4,35.31,35.31,0,0,0-9.41-5.47,65.86,65.86,0,0,0-14.12-3.91,14.16,14.16,0,0,1,6.28-4.8,24.92,24.92,0,0,1,7.48-1.63c2.24-.16,4.78,0,6.59,1.45A25.66,25.66,0,0,1,382.13,142.8Zm-21.53-13a23.05,23.05,0,0,1,8.52,1.42,23.53,23.53,0,0,1,6.64,3.8c-2.81-1-6.35-.35-9,.26-4,.92-8,3-10.19,6.44a46,46,0,0,0-6.51-.44c.6-1,1.24-2.06,1.93-3A35.75,35.75,0,0,1,360.6,129.84Zm-15.4,5.61.36-.28c0,.65.08,1.3.15,1.94,0,.16.27.23.32,0a6,6,0,0,0,0-2.31A26.22,26.22,0,0,1,359,129.93a34.5,34.5,0,0,0-9.94,11.4,34.76,34.76,0,0,0-4,.34A11.31,11.31,0,0,0,345.2,135.45Zm-4.66,4.71a26.26,26.26,0,0,1,3.95-4.14,10.71,10.71,0,0,1-.4,5.79,21.17,21.17,0,0,0-5.78,1.82A25.9,25.9,0,0,1,340.54,140.16Zm-2.65,4.26a41.92,41.92,0,0,1,5.88-1.73,38.37,38.37,0,0,1-3.64,6.48,43.09,43.09,0,0,0-3.29,5.9,26.36,26.36,0,0,0-1.65,4.51A26.87,26.87,0,0,1,337.89,144.42Zm.24,24.41a25,25,0,0,1-2.14-5.21c.32-1.06.61-2.16.85-3.24,0-.16-.21-.29-.29-.12a10.74,10.74,0,0,0-.8,2.46c-.14-.56-.25-1.13-.35-1.7.92-2.11,1.49-4.36,2.51-6.45a62.72,62.72,0,0,1,3.79-6.36,29.14,29.14,0,0,0,3-5.69,24.42,24.42,0,0,1,3-.37l.91,0a38.32,38.32,0,0,0-3.25,26.48,32.65,32.65,0,0,0,4.86,11.21A25.2,25.2,0,0,1,338.13,168.83Zm26.19,12.53a24.19,24.19,0,0,1-13.18-1.19,49.18,49.18,0,0,1-4.61-10.38,37.77,37.77,0,0,1-1.38-11.34,37.24,37.24,0,0,1,4.45-16.36,42.67,42.67,0,0,1,6.48.43c-.12.22-.23.43-.33.66-1.9,4.14-.51,8.69,1.53,12.5s4.77,7,7.36,10.31c3,3.9,5.64,7.87,6.8,12.73A22.91,22.91,0,0,1,364.32,181.36Zm21.08-23.5a24.56,24.56,0,0,1-6.91,15.41,36.61,36.61,0,0,1-4.13,3.56.43.43,0,0,0,0-.11c-.06-.31-.11-.62-.17-.94s-.35-.14-.33.05l.12,1,0,.27-.57.39c-.38-3.26-1-6.58-3.3-9.06-.06-.07-.16,0-.1.1,2.33,2.49,2.79,5.89,3.13,9.15l-.95.6c-1.27-7.48-7.49-13.16-11.68-19.09-2.35-3.32-4.68-7.26-4.86-11.43a9.27,9.27,0,0,1,1.31-5.11l1.49.25c7.09,1.31,14.49,3.47,20.38,7.74A34.12,34.12,0,0,1,385.4,157.86Z" transform="translate(-29.83 -60.42)"/><path class="cls-39" d="M353.18,150.92a15.25,15.25,0,0,1,.55-6.47c0-.1-.12-.14-.16,0-1.56,4-1.12,9.33,1.67,12.76.12.13.33,0,.24-.19A16.91,16.91,0,0,1,353.18,150.92Z" transform="translate(-29.83 -60.42)"/><path class="cls-39" d="M357,159.5c-.16-.2-.5,0-.35.21a11.78,11.78,0,0,0,1.43,1.86.15.15,0,0,0,.24-.18A11.06,11.06,0,0,0,357,159.5Z" transform="translate(-29.83 -60.42)"/><path class="cls-39" d="M344.81,144.24c-1.54,3.21-4.18,6-5.18,9.46,0,.14.17.24.24.1,1.48-3.29,3.77-6.14,5.14-9.48C345.06,144.21,344.87,144.13,344.81,144.24Z" transform="translate(-29.83 -60.42)"/><path class="cls-39" d="M366.63,190.45c0-.34,0-.68-.06-1a.33.33,0,0,0-.66,0c0,.34-.05.68-.06,1a1.14,1.14,0,0,0,.16.87.33.33,0,0,0,.45,0A1.15,1.15,0,0,0,366.63,190.45Z" transform="translate(-29.83 -60.42)"/><path class="cls-39" d="M367,196.57c-.05-.34-.61-.26-.59.08.08,1.57-.13,3.68.65,5.1a.22.22,0,0,0,.41-.05C367.9,200.16,367.24,198.12,367,196.57Z" transform="translate(-29.83 -60.42)"/><path class="cls-39" d="M373.15,212.5c-.37-.43-.95-.62-1.32-1.07a3.53,3.53,0,0,1-.79-1.58c-.07-.38-.67-.28-.66.09A3.25,3.25,0,0,0,371,212c.4.5,1.13,1.21,1.83,1.12A.39.39,0,0,0,373.15,212.5Z" transform="translate(-29.83 -60.42)"/><path class="cls-39" d="M383.19,221.39a17.33,17.33,0,0,0-4.07-3.35c-.24-.17-.51.2-.31.4.64.64,1.26,1.28,1.94,1.87a9.71,9.71,0,0,0,2,1.53C383,222,383.4,221.68,383.19,221.39Z" transform="translate(-29.83 -60.42)"/><path class="cls-39" d="M395.21,227.45a19.8,19.8,0,0,0-5.57-1.83.35.35,0,0,0-.19.68,19.58,19.58,0,0,0,5.62,1.68C395.36,228,395.44,227.59,395.21,227.45Z" transform="translate(-29.83 -60.42)"/><path class="cls-39" d="M400.88,229.08c-.35-.36-.94-.13-1.38-.09a.36.36,0,0,0,0,.71c.44.05,1,.28,1.38-.08A.38.38,0,0,0,400.88,229.08Z" transform="translate(-29.83 -60.42)"/><path class="cls-39" d="M385.44,124.9c-1.28,1.2-2,3-2.89,4.46-.2.34.3.62.52.3,1-1.41,2.34-2.78,2.93-4.43C386.12,124.89,385.67,124.68,385.44,124.9Z" transform="translate(-29.83 -60.42)"/><path class="cls-39" d="M393.12,117.07a22.5,22.5,0,0,0-3.34,3.87c-.29.36.19.87.52.52a23.53,23.53,0,0,0,3.39-3.95A.37.37,0,0,0,393.12,117.07Z" transform="translate(-29.83 -60.42)"/><path class="cls-39" d="M400.06,111.44c-.6,0-1,.59-1.46,1s-1,.93-1.55,1.39c-.27.25.09.74.4.52.57-.4,1.14-.79,1.69-1.2s1.13-.64,1.27-1.21A.37.37,0,0,0,400.06,111.44Z" transform="translate(-29.83 -60.42)"/><path class="cls-39" d="M460.23,264.1a6.11,6.11,0,0,0-1.31-1.43c-.5-.47-1-.91-1.53-1.39a.31.31,0,0,0-.44.44c.47.5.91,1,1.39,1.54a6.09,6.09,0,0,0,1.43,1.3A.34.34,0,0,0,460.23,264.1Z" transform="translate(-29.83 -60.42)"/><path class="cls-39" d="M463.48,272.93a.36.36,0,0,0-.51.51c1.28,1.4,1.42,2.92,1.64,4.7a.32.32,0,0,0,.62.08C466,276.37,464.85,274.16,463.48,272.93Z" transform="translate(-29.83 -60.42)"/><path class="cls-39" d="M466.52,288.9a11.12,11.12,0,0,1-.15-2.44c0-.36-.56-.44-.62-.09-.27,1.39-.49,3.63.64,4.72a.3.3,0,0,0,.5-.21A9.2,9.2,0,0,0,466.52,288.9Z" transform="translate(-29.83 -60.42)"/><path class="cls-39" d="M465.57,297.43a26.13,26.13,0,0,0-1.16,6.18.34.34,0,0,0,.67.09,26.91,26.91,0,0,0,1.12-6.19C466.24,297.15,465.66,297.09,465.57,297.43Z" transform="translate(-29.83 -60.42)"/><path class="cls-39" d="M459.63,312.33c-.31.59-.63,1.17-.92,1.76a6.22,6.22,0,0,0-.72,1.68c-.05.3.3.58.55.32a5.8,5.8,0,0,0,.91-1.56c.3-.6.58-1.2.86-1.8S459.87,311.87,459.63,312.33Z" transform="translate(-29.83 -60.42)"/><path class="cls-39" d="M454.75,321.18c-.91.93-1.89,1.81-2.75,2.79a.41.41,0,0,0,.58.58c.94-.9,1.78-1.92,2.66-2.88C455.54,321.35,455.06,320.87,454.75,321.18Z" transform="translate(-29.83 -60.42)"/><path class="cls-39" d="M446.88,328.29a18.83,18.83,0,0,1-3.75,3.32.43.43,0,0,0,.44.75,12.63,12.63,0,0,0,3.94-3.59C447.78,328.42,447.17,327.94,446.88,328.29Z" transform="translate(-29.83 -60.42)"/><path class="cls-39" d="M436.46,336a8.06,8.06,0,0,1-2,1.06,19.51,19.51,0,0,0-1.88.58c-.38.19-.14.68.2.72,1.37.17,3.05-.88,4.1-1.66C437.29,336.42,436.89,335.72,436.46,336Z" transform="translate(-29.83 -60.42)"/></svg>